<svg version="1.1" viewBox="0.0 0.0 641.2230971128608 171.69028871391077" fill="none" stroke="none" stroke-linecap="square" stroke-miterlimit="10" xmlns:xlink="http://www.w3.org/1999/xlink" xmlns="http://www.w3.org/2000/svg"><clipPath id="p.0"><path d="m0 0l641.2231 0l0 171.69029l-641.2231 0l0 -171.69029z" clip-rule="nonzero"/></clipPath><g clip-path="url(#p.0)"><path fill="#000000" fill-opacity="0.0" d="m0 0l641.2231 0l0 171.69029l-641.2231 0z" fill-rule="evenodd"/><path fill="#999999" d="m384.48108 52.23622l42.393677 0l0 54.173225l-42.393677 0z" fill-rule="evenodd"/><path stroke="#000000" stroke-width="1.0" stroke-linejoin="round" stroke-linecap="butt" d="m384.48108 52.23622l42.393677 0l0 54.173225l-42.393677 0z" fill-rule="evenodd"/><path fill="#4f8bc4" d="m433.0836 52.236237l42.393707 0l0 54.173225l-42.393707 0z" fill-rule="evenodd"/><path stroke="#000000" stroke-width="1.0" stroke-linejoin="round" stroke-linecap="butt" d="m433.0836 52.236237l42.393707 0l0 54.173225l-42.393707 0z" fill-rule="evenodd"/><path fill="#999999" d="m335.8757 52.23622l42.393707 0l0 54.173225l-42.393707 0z" fill-rule="evenodd"/><path stroke="#000000" stroke-width="1.0" stroke-linejoin="round" stroke-linecap="butt" d="m335.8757 52.23622l42.393707 0l0 54.173225l-42.393707 0z" fill-rule="evenodd"/><path fill="#999999" d="m279.27036 52.23622l42.393677 0l0 54.173225l-42.393677 0z" fill-rule="evenodd"/><path stroke="#000000" stroke-width="1.0" stroke-linejoin="round" stroke-linecap="butt" d="m279.27036 52.23622l42.393677 0l0 54.173225l-42.393677 0z" fill-rule="evenodd"/><path fill="#000000" fill-opacity="0.0" d="m5.5669293 116.24147l583.90546 0" fill-rule="evenodd"/><path stroke="#d89f39" stroke-width="8.0" stroke-linejoin="round" stroke-linecap="butt" d="m5.5669293 116.24147l535.90546 0" fill-rule="evenodd"/><path fill="#d89f39" stroke="#d89f39" stroke-width="8.0" stroke-linecap="butt" d="m541.4725 129.45532l36.30475 -13.213852l-36.30475 -13.21386z" fill-rule="evenodd"/><path fill="#000000" fill-opacity="0.0" d="m566.32806 106.40945l119.30713 0l0 50.645668l-119.30713 0z" fill-rule="evenodd"/><path fill="#000000" d="m581.5468 137.07445q0.515625 0 0.984375 -0.078125q0.484375 -0.078125 0.765625 -0.15625l0 1.484375q-0.3125 0.15625 -0.9375 0.25q-0.609375 0.109375 -1.09375 0.109375q-3.734375 0 -3.734375 -3.921875l0 -7.640625l-1.84375 0l0 -0.9375l1.84375 -0.8125l0.828125 -2.75l1.125 0l0 2.984375l3.71875 0l0 1.515625l-3.71875 0l0 7.546875q0 1.171875 0.546875 1.796875q0.546875 0.609375 1.515625 0.609375zm6.2695312 1.375l-1.953125 0l0 -12.84375l1.953125 0l0 12.84375zm-2.109375 -16.328125q0 -0.671875 0.328125 -0.96875q0.328125 -0.3125 0.8125 -0.3125q0.46875 0 0.8125 0.3125q0.34375 0.3125 0.34375 0.96875q0 0.65625 -0.34375 0.984375q-0.34375 0.3125 -0.8125 0.3125q-0.484375 0 -0.8125 -0.3125q-0.328125 -0.328125 -0.328125 -0.984375zm22.601562 16.328125l0 -8.359375q0 -1.53125 -0.65625 -2.296875q-0.65625 -0.765625 -2.046875 -0.765625q-1.8125 0 -2.6875 1.046875q-0.859375 1.03125 -0.859375 3.203125l0 7.171875l-1.9375 0l0 -8.359375q0 -1.53125 -0.65625 -2.296875q-0.65625 -0.765625 -2.0625 -0.765625q-1.828125 0 -2.671875 1.09375q-0.84375 1.09375 -0.84375 3.59375l0 6.734375l-1.953125 0l0 -12.84375l1.578125 0l0.328125 1.75l0.09375 0q0.546875 -0.9375 1.546875 -1.453125q1.0 -0.53125 2.25 -0.53125q3.0 0 3.9375 2.171875l0.09375 0q0.5625 -1.0 1.65625 -1.578125q1.09375 -0.59375 2.484375 -0.59375q2.1875 0 3.265625 1.125q1.078125 1.109375 1.078125 3.578125l0 8.375l-1.9375 0zm11.371094 0.234375q-2.84375 0 -4.5 -1.734375q-1.640625 -1.734375 -1.640625 -4.8125q0 -3.109375 1.53125 -4.9375q1.53125 -1.828125 4.109375 -1.828125q2.421875 0 3.828125 1.59375q1.40625 1.578125 1.40625 4.1875l0 1.21875l-8.859375 0q0.0625 2.265625 1.140625 3.4375q1.09375 1.171875 3.0625 1.171875q2.078125 0 4.09375 -0.859375l0 1.734375q-1.03125 0.4375 -1.953125 0.625q-0.90625 0.203125 -2.21875 0.203125zm-0.515625 -11.6875q-1.546875 0 -2.46875 1.015625q-0.921875 1.0 -1.09375 2.78125l6.71875 0q0 -1.84375 -0.828125 -2.8125q-0.8125 -0.984375 -2.328125 -0.984375z" fill-rule="nonzero"/><path fill="#000000" fill-opacity="0.0" d="m507.43832 44.362206l153.38583 0l0 29.574799l-153.38583 0z" fill-rule="evenodd"/><path fill="#000000" d="m518.65704 66.1622l-1.078125 0l0 -10.124996l1.078125 0l0 10.124996zm6.6835938 0l-0.21875 -1.015625l-0.046875 0q-0.53125 0.671875 -1.0625 0.90625q-0.53125 0.234375 -1.328125 0.234375q-1.0625 0 -1.671875 -0.546875q-0.59375 -0.546875 -0.59375 -1.546875q0 -2.1562462 3.453125 -2.2656212l1.21875 -0.046875l0 -0.4375q0 -0.84375 -0.359375 -1.234375q-0.359375 -0.40625 -1.15625 -0.40625q-0.890625 0 -2.015625 0.546875l-0.34375 -0.828125q0.53125 -0.28125 1.15625 -0.4375q0.640625 -0.171875 1.265625 -0.171875q1.28125 0 1.890625 0.5625q0.609375 0.5625 0.609375 1.8125l0 4.874996l-0.796875 0zm-2.4375 -0.765625q1.0 0 1.578125 -0.546875q0.578125 -0.5625 0.578125 -1.5468712l0 -0.640625l-1.078125 0.03125q-1.28125 0.046875 -1.859375 0.40625q-0.5625 0.359375 -0.5625 1.1093712q0 0.578125 0.34375 0.890625q0.359375 0.296875 1.0 0.296875zm7.7718506 0q0.28125 0 0.546875 -0.03125q0.265625 -0.046875 0.421875 -0.09375l0 0.828125q-0.171875 0.078125 -0.515625 0.125q-0.34375 0.0625 -0.609375 0.0625q-2.078125 0 -2.078125 -2.171875l0 -4.249996l-1.015625 0l0 -0.515625l1.015625 -0.453125l0.453125 -1.515625l0.625 0l0 1.65625l2.078125 0l0 0.828125l-2.078125 0l0 4.203121q0 0.640625 0.3125 0.984375q0.3125 0.34375 0.84375 0.34375zm5.408325 0.890625q-1.578125 0 -2.5 -0.953125q-0.90625 -0.96875 -0.90625 -2.6718712q0 -1.734375 0.84375 -2.75q0.859375 -1.015625 2.28125 -1.015625q1.34375 0 2.125 0.890625q0.78125 0.875 0.78125 2.328125l0 0.671875l-4.90625 0q0.03125 1.2656212 0.625 1.9218712q0.609375 0.640625 1.703125 0.640625q1.140625 0 2.265625 -0.484375l0 0.96875q-0.5625 0.25 -1.078125 0.34375q-0.515625 0.109375 -1.234375 0.109375zm-0.296875 -6.484371q-0.859375 0 -1.375 0.5625q-0.5 0.5625 -0.59375 1.546875l3.734375 0q0 -1.015625 -0.453125 -1.5625q-0.453125 -0.546875 -1.3125 -0.546875zm9.368164 4.406246q0 1.0 -0.75 1.546875q-0.734375 0.53125 -2.078125 0.53125q-1.421875 0 -2.21875 -0.4375l0 -1.015625q0.515625 0.265625 1.109375 0.421875q0.59375 0.140625 1.140625 0.140625q0.84375 0 1.296875 -0.265625q0.453125 -0.265625 0.453125 -0.828125q0 -0.4062462 -0.359375 -0.7031212q-0.359375 -0.296875 -1.40625 -0.703125q-1.0 -0.375 -1.421875 -0.640625q-0.421875 -0.28125 -0.625 -0.625q-0.203125 -0.359375 -0.203125 -0.84375q0 -0.875 0.703125 -1.375q0.71875 -0.515625 1.953125 -0.515625q1.15625 0 2.25 0.46875l-0.375 0.875q-1.078125 -0.4375 -1.953125 -0.4375q-0.765625 0 -1.15625 0.25q-0.390625 0.234375 -0.390625 0.65625q0 0.28125 0.140625 0.484375q0.15625 0.203125 0.46875 0.390625q0.328125 0.171875 1.25 0.53125q1.28125 0.453125 1.71875 0.921875q0.453125 0.46875 0.453125 1.1718712zm4.0613403 1.1875q0.28125 0 0.546875 -0.03125q0.265625 -0.046875 0.421875 -0.09375l0 0.828125q-0.171875 0.078125 -0.515625 0.125q-0.34375 0.0625 -0.609375 0.0625q-2.078125 0 -2.078125 -2.171875l0 -4.249996l-1.015625 0l0 -0.515625l1.015625 -0.453125l0.453125 -1.515625l0.625 0l0 1.65625l2.078125 0l0 0.828125l-2.078125 0l0 4.203121q0 0.640625 0.3125 0.984375q0.3125 0.34375 0.84375 0.34375zm12.011169 -2.8124962q0 1.7499962 -0.875 2.7343712q-0.875 0.96875 -2.421875 0.96875q-0.953125 0 -1.703125 -0.4375q-0.734375 -0.453125 -1.140625 -1.296875q-0.40625 -0.8437462 -0.40625 -1.9687462q0 -1.734375 0.875 -2.703125q0.875 -0.984375 2.421875 -0.984375q1.484375 0 2.359375 1.0q0.890625 1.0 0.890625 2.6875zm-5.421875 0q0 1.375 0.546875 2.0937462q0.546875 0.703125 1.59375 0.703125q1.0625 0 1.609375 -0.703125q0.5625 -0.7187462 0.5625 -2.0937462q0 -1.359375 -0.5625 -2.0625q-0.546875 -0.703125 -1.609375 -0.703125q-1.0625 0 -1.609375 0.703125q-0.53125 0.6875 -0.53125 2.0625zm10.643982 -3.671875q1.40625 0 2.171875 0.96875q0.78125 0.953125 0.78125 2.703125q0 1.7656212 -0.78125 2.7343712q-0.78125 0.96875 -2.171875 0.96875q-0.703125 0 -1.28125 -0.25q-0.578125 -0.265625 -0.96875 -0.796875l-0.078125 0l-0.21875 0.921875l-0.78125 0l0 -10.124996l1.078125 0l0 2.453125q0 0.828125 -0.046875 1.484375l0.046875 0q0.765625 -1.0625 2.25 -1.0625zm-0.15625 0.90625q-1.109375 0 -1.609375 0.640625q-0.484375 0.625 -0.484375 2.125q0 1.5156212 0.5 2.1562462q0.515625 0.640625 1.609375 0.640625q1.0 0 1.484375 -0.71875q0.5 -0.7187462 0.5 -2.0781212q0 -1.40625 -0.5 -2.078125q-0.484375 -0.6875 -1.5 -0.6875zm9.604858 4.390621q0 1.0 -0.75 1.546875q-0.734375 0.53125 -2.078125 0.53125q-1.421875 0 -2.21875 -0.4375l0 -1.015625q0.515625 0.265625 1.109375 0.421875q0.59375 0.140625 1.140625 0.140625q0.84375 0 1.296875 -0.265625q0.453125 -0.265625 0.453125 -0.828125q0 -0.4062462 -0.359375 -0.7031212q-0.359375 -0.296875 -1.40625 -0.703125q-1.0 -0.375 -1.421875 -0.640625q-0.421875 -0.28125 -0.625 -0.625q-0.203125 -0.359375 -0.203125 -0.84375q0 -0.875 0.703125 -1.375q0.71875 -0.515625 1.953125 -0.515625q1.15625 0 2.25 0.46875l-0.375 0.875q-1.078125 -0.4375 -1.953125 -0.4375q-0.765625 0 -1.15625 0.25q-0.390625 0.234375 -0.390625 0.65625q0 0.28125 0.140625 0.484375q0.15625 0.203125 0.46875 0.390625q0.328125 0.171875 1.25 0.53125q1.28125 0.453125 1.71875 0.921875q0.453125 0.46875 0.453125 1.1718712zm4.7644653 2.078125q-1.578125 0 -2.5 -0.953125q-0.90625 -0.96875 -0.90625 -2.6718712q0 -1.734375 0.84375 -2.75q0.859375 -1.015625 2.28125 -1.015625q1.34375 0 2.125 0.890625q0.78125 0.875 0.78125 2.328125l0 0.671875l-4.90625 0q0.03125 1.2656212 0.625 1.9218712q0.609375 0.640625 1.703125 0.640625q1.140625 0 2.265625 -0.484375l0 0.96875q-0.5625 0.25 -1.078125 0.34375q-0.515625 0.109375 -1.234375 0.109375zm-0.296875 -6.484371q-0.859375 0 -1.375 0.5625q-0.5 0.5625 -0.59375 1.546875l3.734375 0q0 -1.015625 -0.453125 -1.5625q-0.453125 -0.546875 -1.3125 -0.546875zm8.024414 -0.90625q0.46875 0 0.84375 0.078125l-0.140625 1.0q-0.453125 -0.09375 -0.78125 -0.09375q-0.875 0 -1.5 0.703125q-0.609375 0.703125 -0.609375 1.75l0 3.8281212l-1.078125 0l0 -7.124996l0.890625 0l0.125 1.3125l0.0625 0q0.390625 -0.703125 0.953125 -1.078125q0.5625 -0.375 1.234375 -0.375zm3.7374878 7.265621l-2.703125 -7.124996l1.15625 0l1.53125 4.21875q0.53125 1.4843712 0.625 1.9374962l0.046875 0q0.0625 -0.359375 0.4375 -1.4374962q0.390625 -1.078125 1.71875 -4.71875l1.15625 0l-2.703125 7.124996l-1.265625 0zm9.505188 0l-0.21875 -1.015625l-0.046875 0q-0.53125 0.671875 -1.0625 0.90625q-0.53125 0.234375 -1.328125 0.234375q-1.0625 0 -1.671875 -0.546875q-0.59375 -0.546875 -0.59375 -1.546875q0 -2.1562462 3.453125 -2.2656212l1.21875 -0.046875l0 -0.4375q0 -0.84375 -0.359375 -1.234375q-0.359375 -0.40625 -1.15625 -0.40625q-0.890625 0 -2.015625 0.546875l-0.34375 -0.828125q0.53125 -0.28125 1.15625 -0.4375q0.640625 -0.171875 1.265625 -0.171875q1.28125 0 1.890625 0.5625q0.609375 0.5625 0.609375 1.8125l0 4.874996l-0.796875 0zm-2.4375 -0.765625q1.0 0 1.578125 -0.546875q0.578125 -0.5625 0.578125 -1.5468712l0 -0.640625l-1.078125 0.03125q-1.28125 0.046875 -1.859375 0.40625q-0.5625 0.359375 -0.5625 1.1093712q0 0.578125 0.34375 0.890625q0.359375 0.296875 1.0 0.296875zm7.7718506 0q0.28125 0 0.546875 -0.03125q0.265625 -0.046875 0.421875 -0.09375l0 0.828125q-0.171875 0.078125 -0.515625 0.125q-0.34375 0.0625 -0.609375 0.0625q-2.078125 0 -2.078125 -2.171875l0 -4.249996l-1.015625 0l0 -0.515625l1.015625 -0.453125l0.453125 -1.515625l0.625 0l0 1.65625l2.078125 0l0 0.828125l-2.078125 0l0 4.203121q0 0.640625 0.3125 0.984375q0.3125 0.34375 0.84375 0.34375zm3.4708252 0.765625l-1.078125 0l0 -7.124996l1.078125 0l0 7.124996zm-1.171875 -9.062496q0 -0.375 0.1875 -0.546875q0.1875 -0.171875 0.453125 -0.171875q0.265625 0 0.453125 0.171875q0.1875 0.171875 0.1875 0.546875q0 0.359375 -0.1875 0.546875q-0.1875 0.171875 -0.453125 0.171875q-0.265625 0 -0.453125 -0.171875q-0.1875 -0.1875 -0.1875 -0.546875zm9.621094 5.484375q0 1.7499962 -0.875 2.7343712q-0.875 0.96875 -2.421875 0.96875q-0.953125 0 -1.703125 -0.4375q-0.734375 -0.453125 -1.140625 -1.296875q-0.40625 -0.8437462 -0.40625 -1.9687462q0 -1.734375 0.875 -2.703125q0.875 -0.984375 2.421875 -0.984375q1.484375 0 2.359375 1.0q0.890625 1.0 0.890625 2.6875zm-5.421875 0q0 1.375 0.546875 2.0937462q0.546875 0.703125 1.59375 0.703125q1.0625 0 1.609375 -0.703125q0.5625 -0.7187462 0.5625 -2.0937462q0 -1.359375 -0.5625 -2.0625q-0.546875 -0.703125 -1.609375 -0.703125q-1.0625 0 -1.609375 0.703125q-0.53125 0.6875 -0.53125 2.0625zm12.206482 3.5781212l0 -4.609371q0 -0.875 -0.40625 -1.296875q-0.390625 -0.4375 -1.234375 -0.4375q-1.125 0 -1.65625 0.609375q-0.515625 0.59375 -0.515625 2.0l0 3.7343712l-1.078125 0l0 -7.124996l0.890625 0l0.171875 0.96875l0.046875 0q0.328125 -0.53125 0.921875 -0.8125q0.609375 -0.296875 1.34375 -0.296875q1.296875 0 1.9375 0.625q0.65625 0.625 0.65625 1.984375l0 4.656246l-1.078125 0z" fill-rule="nonzero"/><path fill="#999999" d="m125.15561 52.23622l42.393692 0l0 54.173225l-42.393692 0z" fill-rule="evenodd"/><path stroke="#000000" stroke-width="1.0" stroke-linejoin="round" stroke-linecap="butt" d="m125.15561 52.23622l42.393692 0l0 54.173225l-42.393692 0z" fill-rule="evenodd"/><path fill="#999999" d="m182.05814 52.23622l42.393707 0l0 54.173225l-42.393707 0z" fill-rule="evenodd"/><path stroke="#000000" stroke-width="1.0" stroke-linejoin="round" stroke-linecap="butt" d="m182.05814 52.23622l42.393707 0l0 54.173225l-42.393707 0z" fill-rule="evenodd"/><path fill="#999999" d="m27.944881 52.23622l42.393703 0l0 54.173225l-42.393703 0z" fill-rule="evenodd"/><path stroke="#000000" stroke-width="1.0" stroke-linejoin="round" stroke-linecap="butt" d="m27.944881 52.23622l42.393703 0l0 54.173225l-42.393703 0z" fill-rule="evenodd"/><path fill="#000000" fill-opacity="0.0" d="m25.498688 39.01837l146.3307 0l0 91.30708l-146.3307 0z" fill-rule="evenodd"/><path stroke="#434343" stroke-width="2.0" stroke-linejoin="round" stroke-linecap="butt" d="m25.498688 39.01837l146.3307 0l0 91.30708l-146.3307 0z" fill-rule="evenodd"/><path fill="#000000" fill-opacity="0.0" d="m177.49869 39.01837l149.07086 0l0 91.30708l-149.07086 0z" fill-rule="evenodd"/><path stroke="#434343" stroke-width="2.0" stroke-linejoin="round" stroke-linecap="butt" d="m177.49869 39.01837l149.07086 0l0 91.30708l-149.07086 0z" fill-rule="evenodd"/><path fill="#000000" fill-opacity="0.0" d="m331.8924 39.01837l149.07086 0l0 91.30708l-149.07086 0z" fill-rule="evenodd"/><path stroke="#434343" stroke-width="2.0" stroke-linejoin="round" stroke-linecap="butt" d="m331.8924 39.01837l149.07086 0l0 91.30708l-149.07086 0z" fill-rule="evenodd"/><path fill="#000000" fill-opacity="0.0" d="m274.66403 39.01837l0 -25.0l153.38583 0l0 25.062992" fill-rule="evenodd"/><path stroke="#000000" stroke-width="1.0" stroke-linejoin="round" stroke-linecap="butt" d="m274.66403 39.01837l0 -25.0l153.38583 0l0 21.635906" fill-rule="evenodd"/><path fill="#000000" stroke="#000000" stroke-width="1.0" stroke-linecap="butt" d="m428.04987 35.654278l-1.1245728 -1.1245842l1.1245728 3.0897675l1.1245728 -3.0897675z" fill-rule="evenodd"/><path fill="#000000" fill-opacity="0.0" d="m74.66404 39.01837l0 -25.0l153.38583 0l0 25.062992" fill-rule="evenodd"/><path stroke="#000000" stroke-width="1.0" stroke-linejoin="round" stroke-linecap="butt" d="m74.66404 39.01837l0 -25.0l153.38583 0l0 21.635906" fill-rule="evenodd"/><path fill="#000000" stroke="#000000" stroke-width="1.0" stroke-linecap="butt" d="m228.04987 35.654278l-1.124588 -1.1245842l1.124588 3.0897675l1.124588 -3.0897675z" fill-rule="evenodd"/><path fill="#000000" fill-opacity="0.0" d="m229.48294 130.32545l0 25.0l-153.44882 0l0 -24.936996" fill-rule="evenodd"/><path stroke="#000000" stroke-width="1.0" stroke-linejoin="round" stroke-linecap="butt" d="m229.48294 130.32545l0 25.0l-153.44882 0l0 -21.509918" fill-rule="evenodd"/><path fill="#000000" stroke="#000000" stroke-width="1.0" stroke-linecap="butt" d="m76.03412 133.81554l1.124588 1.124588l-1.124588 -3.0897675l-1.1245804 3.0897675z" fill-rule="evenodd"/><path fill="#000000" fill-opacity="0.0" d="m429.48294 130.32545l0 25.0l-153.44882 0l0 -24.936996" fill-rule="evenodd"/><path stroke="#000000" stroke-width="1.0" stroke-linejoin="round" stroke-linecap="butt" d="m429.48294 130.32545l0 25.0l-153.44882 0l0 -21.509918" fill-rule="evenodd"/><path fill="#000000" stroke="#000000" stroke-width="1.0" stroke-linecap="butt" d="m276.03412 133.81554l1.1245728 1.124588l-1.1245728 -3.0897675l-1.1245728 3.0897675z" fill-rule="evenodd"/><path fill="#999999" d="m86.92782 79.32284l0 0c0 -1.556839 1.2620697 -2.818901 2.818901 -2.818901l0 0c0.7476196 0 1.4646149 0.29698944 1.9932632 0.8256378c0.52864075 0.52864075 0.8256378 1.2456436 0.8256378 1.9932632l0 0c0 1.5568314 -1.2620697 2.8188934 -2.818901 2.8188934l0 0c-1.5568314 0 -2.818901 -1.2620621 -2.818901 -2.8188934z" fill-rule="evenodd"/><path stroke="#000000" stroke-width="1.0" stroke-linejoin="round" stroke-linecap="butt" d="m86.92782 79.32284l0 0c0 -1.556839 1.2620697 -2.818901 2.818901 -2.818901l0 0c0.7476196 0 1.4646149 0.29698944 1.9932632 0.8256378c0.52864075 0.52864075 0.8256378 1.2456436 0.8256378 1.9932632l0 0c0 1.5568314 -1.2620697 2.8188934 -2.818901 2.8188934l0 0c-1.5568314 0 -2.818901 -1.2620621 -2.818901 -2.8188934z" fill-rule="evenodd"/><path fill="#999999" d="m94.92782 79.32284l0 0c0 -1.556839 1.2620697 -2.818901 2.818901 -2.818901l0 0c0.7476196 0 1.4646149 0.29698944 1.9932632 0.8256378c0.52864075 0.52864075 0.8256378 1.2456436 0.8256378 1.9932632l0 0c0 1.5568314 -1.2620697 2.8188934 -2.818901 2.8188934l0 0c-1.5568314 0 -2.818901 -1.2620621 -2.818901 -2.8188934z" fill-rule="evenodd"/><path stroke="#000000" stroke-width="1.0" stroke-linejoin="round" stroke-linecap="butt" d="m94.92782 79.32284l0 0c0 -1.556839 1.2620697 -2.818901 2.818901 -2.818901l0 0c0.7476196 0 1.4646149 0.29698944 1.9932632 0.8256378c0.52864075 0.52864075 0.8256378 1.2456436 0.8256378 1.9932632l0 0c0 1.5568314 -1.2620697 2.8188934 -2.818901 2.8188934l0 0c-1.5568314 0 -2.818901 -1.2620621 -2.818901 -2.8188934z" fill-rule="evenodd"/><path fill="#999999" d="m102.92782 79.32284l0 0c0 -1.556839 1.2620697 -2.818901 2.818901 -2.818901l0 0c0.7476196 0 1.4646149 0.29698944 1.9932632 0.8256378c0.52864075 0.52864075 0.8256378 1.2456436 0.8256378 1.9932632l0 0c0 1.5568314 -1.2620697 2.8188934 -2.818901 2.8188934l0 0c-1.5568314 0 -2.818901 -1.2620621 -2.818901 -2.8188934z" fill-rule="evenodd"/><path stroke="#000000" stroke-width="1.0" stroke-linejoin="round" stroke-linecap="butt" d="m102.92782 79.32284l0 0c0 -1.556839 1.2620697 -2.818901 2.818901 -2.818901l0 0c0.7476196 0 1.4646149 0.29698944 1.9932632 0.8256378c0.52864075 0.52864075 0.8256378 1.2456436 0.8256378 1.9932632l0 0c0 1.5568314 -1.2620697 2.8188934 -2.818901 2.8188934l0 0c-1.5568314 0 -2.818901 -1.2620621 -2.818901 -2.8188934z" fill-rule="evenodd"/><path fill="#999999" d="m241.04068 79.32284l0 0c0 -1.556839 1.2620697 -2.818901 2.8188934 -2.818901l0 0c0.7476196 0 1.4646149 0.29698944 1.9932709 0.8256378c0.52864075 0.52864075 0.8256378 1.2456436 0.8256378 1.9932632l0 0c0 1.5568314 -1.2620697 2.8188934 -2.8189087 2.8188934l0 0c-1.5568237 0 -2.8188934 -1.2620621 -2.8188934 -2.8188934z" fill-rule="evenodd"/><path stroke="#000000" stroke-width="1.0" stroke-linejoin="round" stroke-linecap="butt" d="m241.04068 79.32284l0 0c0 -1.556839 1.2620697 -2.818901 2.8188934 -2.818901l0 0c0.7476196 0 1.4646149 0.29698944 1.9932709 0.8256378c0.52864075 0.52864075 0.8256378 1.2456436 0.8256378 1.9932632l0 0c0 1.5568314 -1.2620697 2.8188934 -2.8189087 2.8188934l0 0c-1.5568237 0 -2.8188934 -1.2620621 -2.8188934 -2.8188934z" fill-rule="evenodd"/><path fill="#999999" d="m249.04068 79.32284l0 0c0 -1.556839 1.2620697 -2.818901 2.8188934 -2.818901l0 0c0.7476196 0 1.4646149 0.29698944 1.9932709 0.8256378c0.52864075 0.52864075 0.8256378 1.2456436 0.8256378 1.9932632l0 0c0 1.5568314 -1.2620697 2.8188934 -2.8189087 2.8188934l0 0c-1.5568237 0 -2.8188934 -1.2620621 -2.8188934 -2.8188934z" fill-rule="evenodd"/><path stroke="#000000" stroke-width="1.0" stroke-linejoin="round" stroke-linecap="butt" d="m249.04068 79.32284l0 0c0 -1.556839 1.2620697 -2.818901 2.8188934 -2.818901l0 0c0.7476196 0 1.4646149 0.29698944 1.9932709 0.8256378c0.52864075 0.52864075 0.8256378 1.2456436 0.8256378 1.9932632l0 0c0 1.5568314 -1.2620697 2.8188934 -2.8189087 2.8188934l0 0c-1.5568237 0 -2.8188934 -1.2620621 -2.8188934 -2.8188934z" fill-rule="evenodd"/><path fill="#999999" d="m257.04068 79.32284l0 0c0 -1.556839 1.2620544 -2.818901 2.8189087 -2.818901l0 0c0.7476196 0 1.4645996 0.29698944 1.9932556 0.8256378c0.528656 0.52864075 0.82562256 1.2456436 0.82562256 1.9932632l0 0c0 1.5568314 -1.2620544 2.8188934 -2.8188782 2.8188934l0 0c-1.5568542 0 -2.8189087 -1.2620621 -2.8189087 -2.8188934z" fill-rule="evenodd"/><path stroke="#000000" stroke-width="1.0" stroke-linejoin="round" stroke-linecap="butt" d="m257.04068 79.32284l0 0c0 -1.556839 1.2620544 -2.818901 2.8189087 -2.818901l0 0c0.7476196 0 1.4645996 0.29698944 1.9932556 0.8256378c0.528656 0.52864075 0.82562256 1.2456436 0.82562256 1.9932632l0 0c0 1.5568314 -1.2620544 2.8188934 -2.8188782 2.8188934l0 0c-1.5568542 0 -2.8189087 -1.2620621 -2.8189087 -2.8188934z" fill-rule="evenodd"/><path fill="#000000" fill-opacity="0.0" d="m454.02625 81.3832l57.826782 -15.653542" fill-rule="evenodd"/><path stroke="#000000" stroke-width="1.0" stroke-linejoin="round" stroke-linecap="butt" stroke-dasharray="4.0,3.0" d="m454.02625 81.3832l52.035217 -14.085785" fill-rule="evenodd"/><path fill="#000000" stroke="#000000" stroke-width="1.0" stroke-linecap="butt" d="m506.49304 68.89177l3.9488525 -2.7801285l-4.8120117 -0.40857697z" fill-rule="evenodd"/><path fill="#000000" fill-opacity="0.0" d="m308.99475 4.3622046l96.15747 0l0 29.574802l-96.15747 0z" fill-rule="evenodd"/><path fill="#000000" d="m324.026 26.162205l0 -4.609375q0 -0.875 -0.40625 -1.296875q-0.390625 -0.4375 -1.234375 -0.4375q-1.125 0 -1.65625 0.609375q-0.515625 0.609375 -0.515625 2.0l0 3.734375l-1.078125 0l0 -10.125l1.078125 0l0 3.0625q0 0.546875 -0.046875 0.921875l0.0625 0q0.328125 -0.515625 0.90625 -0.8125q0.59375 -0.296875 1.34375 -0.296875q1.3125 0 1.96875 0.625q0.65625 0.625 0.65625 1.96875l0 4.65625l-1.078125 0zm2.1647644 -7.125l1.15625 0l1.5625 4.0625q0.515625 1.390625 0.640625 2.015625l0.046875 0q0.078125 -0.34375 0.34375 -1.140625q0.28125 -0.8125 1.78125 -4.9375l1.15625 0l-3.0625 8.109375q-0.453125 1.203125 -1.0625 1.703125q-0.609375 0.515625 -1.5 0.515625q-0.5 0 -0.96875 -0.109375l0 -0.875q0.359375 0.078125 0.796875 0.078125q1.109375 0 1.59375 -1.25l0.390625 -1.015625l-2.875 -7.15625zm12.7005005 6.171875l-0.0625 0q-0.75 1.078125 -2.234375 1.078125q-1.40625 0 -2.1875 -0.953125q-0.765625 -0.953125 -0.765625 -2.71875q0 -1.765625 0.78125 -2.734375q0.78125 -0.984375 2.171875 -0.984375q1.453125 0 2.21875 1.0625l0.09375 0l-0.046875 -0.515625l-0.03125 -0.5l0 -2.90625l1.078125 0l0 10.125l-0.875 0l-0.140625 -0.953125zm-2.15625 0.171875q1.109375 0 1.59375 -0.59375q0.5 -0.609375 0.5 -1.9375l0 -0.234375q0 -1.515625 -0.5 -2.15625q-0.5 -0.65625 -1.609375 -0.65625q-0.953125 0 -1.453125 0.75q-0.5 0.734375 -0.5 2.078125q0 1.359375 0.5 2.0625q0.5 0.6875 1.46875 0.6875zm8.729889 -6.484375q0.46875 0 0.84375 0.078125l-0.140625 1.0q-0.453125 -0.09375 -0.78125 -0.09375q-0.875 0 -1.5 0.703125q-0.609375 0.703125 -0.609375 1.75l0 3.828125l-1.078125 0l0 -7.125l0.890625 0l0.125 1.3125l0.0625 0q0.390625 -0.703125 0.953125 -1.078125q0.5625 -0.375 1.234375 -0.375zm6.5655823 7.265625l-0.21875 -1.015625l-0.046875 0q-0.53125 0.671875 -1.0625 0.90625q-0.53125 0.234375 -1.328125 0.234375q-1.0625 0 -1.671875 -0.546875q-0.59375 -0.546875 -0.59375 -1.546875q0 -2.15625 3.453125 -2.265625l1.21875 -0.046875l0 -0.4375q0 -0.84375 -0.359375 -1.234375q-0.359375 -0.40625 -1.15625 -0.40625q-0.890625 0 -2.015625 0.546875l-0.34375 -0.828125q0.53125 -0.28125 1.15625 -0.4375q0.640625 -0.171875 1.265625 -0.171875q1.28125 0 1.890625 0.5625q0.609375 0.5625 0.609375 1.8125l0 4.875l-0.796875 0zm-2.4375 -0.765625q1.0 0 1.578125 -0.546875q0.578125 -0.5625 0.578125 -1.546875l0 -0.640625l-1.078125 0.03125q-1.28125 0.046875 -1.859375 0.40625q-0.5625 0.359375 -0.5625 1.109375q0 0.578125 0.34375 0.890625q0.359375 0.296875 1.0 0.296875zm5.3031006 0.078125q0 -0.4375 0.203125 -0.65625q0.203125 -0.234375 0.5625 -0.234375q0.390625 0 0.59375 0.234375q0.21875 0.21875 0.21875 0.65625q0 0.421875 -0.21875 0.65625q-0.21875 0.21875 -0.59375 0.21875q-0.328125 0 -0.546875 -0.203125q-0.21875 -0.203125 -0.21875 -0.671875zm0 -5.75q0 -0.875 0.765625 -0.875q0.8125 0 0.8125 0.875q0 0.421875 -0.21875 0.65625q-0.21875 0.21875 -0.59375 0.21875q-0.328125 0 -0.546875 -0.203125q-0.21875 -0.203125 -0.21875 -0.671875zm8.593689 6.4375l0 -4.609375q0 -0.875 -0.40625 -1.296875q-0.390625 -0.4375 -1.234375 -0.4375q-1.125 0 -1.65625 0.609375q-0.515625 0.59375 -0.515625 2.0l0 3.734375l-1.078125 0l0 -7.125l0.890625 0l0.171875 0.96875l0.046875 0q0.328125 -0.53125 0.921875 -0.8125q0.609375 -0.296875 1.34375 -0.296875q1.296875 0 1.9375 0.625q0.65625 0.625 0.65625 1.984375l0 4.65625l-1.078125 0zm6.3053894 0.125q-1.578125 0 -2.5 -0.953125q-0.90625 -0.96875 -0.90625 -2.671875q0 -1.734375 0.84375 -2.75q0.859375 -1.015625 2.28125 -1.015625q1.34375 0 2.125 0.890625q0.78125 0.875 0.78125 2.328125l0 0.671875l-4.90625 0q0.03125 1.265625 0.625 1.921875q0.609375 0.640625 1.703125 0.640625q1.140625 0 2.265625 -0.484375l0 0.96875q-0.5625 0.25 -1.078125 0.34375q-0.515625 0.109375 -1.234375 0.109375zm-0.296875 -6.484375q-0.859375 0 -1.375 0.5625q-0.5 0.5625 -0.59375 1.546875l3.734375 0q0 -1.015625 -0.453125 -1.5625q-0.453125 -0.546875 -1.3125 -0.546875zm6.4775696 2.703125l-2.46875 -3.46875l1.21875 0l1.890625 2.71875l1.875 -2.71875l1.21875 0l-2.484375 3.46875l2.609375 3.65625l-1.21875 0l-2.0 -2.890625l-2.015625 2.890625l-1.234375 0l2.609375 -3.65625zm7.5766907 2.890625q0.28125 0 0.546875 -0.03125q0.265625 -0.046875 0.421875 -0.09375l0 0.828125q-0.171875 0.078125 -0.515625 0.125q-0.34375 0.0625 -0.609375 0.0625q-2.078125 0 -2.078125 -2.171875l0 -4.25l-1.015625 0l0 -0.515625l1.015625 -0.453125l0.453125 -1.515625l0.625 0l0 1.65625l2.078125 0l0 0.828125l-2.078125 0l0 4.203125q0 0.640625 0.3125 0.984375q0.3125 0.34375 0.84375 0.34375z" fill-rule="nonzero"/><path fill="#000000" fill-opacity="0.0" d="m108.99475 4.3622046l96.157486 0l0 29.574802l-96.157486 0z" fill-rule="evenodd"/><path fill="#000000" d="m124.026 26.162205l0 -4.609375q0 -0.875 -0.40625 -1.296875q-0.390625 -0.4375 -1.234375 -0.4375q-1.125 0 -1.65625 0.609375q-0.515625 0.609375 -0.515625 2.0l0 3.734375l-1.078125 0l0 -10.125l1.078125 0l0 3.0625q0 0.546875 -0.046875 0.921875l0.0625 0q0.328125 -0.515625 0.90625 -0.8125q0.59375 -0.296875 1.34375 -0.296875q1.3125 0 1.96875 0.625q0.65625 0.625 0.65625 1.96875l0 4.65625l-1.078125 0zm2.1647797 -7.125l1.15625 0l1.5625 4.0625q0.515625 1.390625 0.640625 2.015625l0.046875 0q0.078125 -0.34375 0.34375 -1.140625q0.28125 -0.8125 1.78125 -4.9375l1.15625 0l-3.0625 8.109375q-0.453125 1.203125 -1.0625 1.703125q-0.609375 0.515625 -1.5 0.515625q-0.5 0 -0.96875 -0.109375l0 -0.875q0.359375 0.078125 0.796875 0.078125q1.109375 0 1.59375 -1.25l0.390625 -1.015625l-2.875 -7.15625zm12.7005005 6.171875l-0.0625 0q-0.75 1.078125 -2.234375 1.078125q-1.40625 0 -2.1875 -0.953125q-0.765625 -0.953125 -0.765625 -2.71875q0 -1.765625 0.78125 -2.734375q0.78125 -0.984375 2.171875 -0.984375q1.453125 0 2.21875 1.0625l0.09375 0l-0.046875 -0.515625l-0.03125 -0.5l0 -2.90625l1.078125 0l0 10.125l-0.875 0l-0.140625 -0.953125zm-2.15625 0.171875q1.109375 0 1.59375 -0.59375q0.5 -0.609375 0.5 -1.9375l0 -0.234375q0 -1.515625 -0.5 -2.15625q-0.5 -0.65625 -1.609375 -0.65625q-0.953125 0 -1.453125 0.75q-0.5 0.734375 -0.5 2.078125q0 1.359375 0.5 2.0625q0.5 0.6875 1.46875 0.6875zm8.729889 -6.484375q0.46875 0 0.84375 0.078125l-0.140625 1.0q-0.453125 -0.09375 -0.78125 -0.09375q-0.875 0 -1.5 0.703125q-0.609375 0.703125 -0.609375 1.75l0 3.828125l-1.078125 0l0 -7.125l0.890625 0l0.125 1.3125l0.0625 0q0.390625 -0.703125 0.953125 -1.078125q0.5625 -0.375 1.234375 -0.375zm6.5655823 7.265625l-0.21875 -1.015625l-0.046875 0q-0.53125 0.671875 -1.0625 0.90625q-0.53125 0.234375 -1.328125 0.234375q-1.0625 0 -1.671875 -0.546875q-0.59375 -0.546875 -0.59375 -1.546875q0 -2.15625 3.453125 -2.265625l1.21875 -0.046875l0 -0.4375q0 -0.84375 -0.359375 -1.234375q-0.359375 -0.40625 -1.15625 -0.40625q-0.890625 0 -2.015625 0.546875l-0.34375 -0.828125q0.53125 -0.28125 1.15625 -0.4375q0.640625 -0.171875 1.265625 -0.171875q1.28125 0 1.890625 0.5625q0.609375 0.5625 0.609375 1.8125l0 4.875l-0.796875 0zm-2.4375 -0.765625q1.0 0 1.578125 -0.546875q0.578125 -0.5625 0.578125 -1.546875l0 -0.640625l-1.078125 0.03125q-1.28125 0.046875 -1.859375 0.40625q-0.5625 0.359375 -0.5625 1.109375q0 0.578125 0.34375 0.890625q0.359375 0.296875 1.0 0.296875zm5.3031006 0.078125q0 -0.4375 0.203125 -0.65625q0.203125 -0.234375 0.5625 -0.234375q0.390625 0 0.59375 0.234375q0.21875 0.21875 0.21875 0.65625q0 0.421875 -0.21875 0.65625q-0.21875 0.21875 -0.59375 0.21875q-0.328125 0 -0.546875 -0.203125q-0.21875 -0.203125 -0.21875 -0.671875zm0 -5.75q0 -0.875 0.765625 -0.875q0.8125 0 0.8125 0.875q0 0.421875 -0.21875 0.65625q-0.21875 0.21875 -0.59375 0.21875q-0.328125 0 -0.546875 -0.203125q-0.21875 -0.203125 -0.21875 -0.671875zm8.593674 6.4375l0 -4.609375q0 -0.875 -0.40625 -1.296875q-0.390625 -0.4375 -1.234375 -0.4375q-1.125 0 -1.65625 0.609375q-0.515625 0.59375 -0.515625 2.0l0 3.734375l-1.078125 0l0 -7.125l0.890625 0l0.171875 0.96875l0.046875 0q0.328125 -0.53125 0.921875 -0.8125q0.609375 -0.296875 1.34375 -0.296875q1.296875 0 1.9375 0.625q0.65625 0.625 0.65625 1.984375l0 4.65625l-1.078125 0zm6.3054047 0.125q-1.578125 0 -2.5 -0.953125q-0.90625 -0.96875 -0.90625 -2.671875q0 -1.734375 0.84375 -2.75q0.859375 -1.015625 2.28125 -1.015625q1.34375 0 2.125 0.890625q0.78125 0.875 0.78125 2.328125l0 0.671875l-4.90625 0q0.03125 1.265625 0.625 1.921875q0.609375 0.640625 1.703125 0.640625q1.140625 0 2.265625 -0.484375l0 0.96875q-0.5625 0.25 -1.078125 0.34375q-0.515625 0.109375 -1.234375 0.109375zm-0.296875 -6.484375q-0.859375 0 -1.375 0.5625q-0.5 0.5625 -0.59375 1.546875l3.734375 0q0 -1.015625 -0.453125 -1.5625q-0.453125 -0.546875 -1.3125 -0.546875zm6.4775543 2.703125l-2.46875 -3.46875l1.21875 0l1.890625 2.71875l1.875 -2.71875l1.21875 0l-2.484375 3.46875l2.609375 3.65625l-1.21875 0l-2.0 -2.890625l-2.015625 2.890625l-1.234375 0l2.609375 -3.65625zm7.576706 2.890625q0.28125 0 0.546875 -0.03125q0.265625 -0.046875 0.421875 -0.09375l0 0.828125q-0.171875 0.078125 -0.515625 0.125q-0.34375 0.0625 -0.609375 0.0625q-2.078125 0 -2.078125 -2.171875l0 -4.25l-1.015625 0l0 -0.515625l1.015625 -0.453125l0.453125 -1.515625l0.625 0l0 1.65625l2.078125 0l0 0.828125l-2.078125 0l0 4.203125q0 0.640625 0.3125 0.984375q0.3125 0.34375 0.84375 0.34375z" fill-rule="nonzero"/><path fill="#000000" fill-opacity="0.0" d="m95.026245 126.073494l115.46457 0l0 29.574806l-115.46457 0z" fill-rule="evenodd"/><path fill="#000000" d="m110.057495 147.87349l0 -4.609375q0 -0.875 -0.40625 -1.296875q-0.390625 -0.4375 -1.234375 -0.4375q-1.125 0 -1.65625 0.609375q-0.515625 0.609375 -0.515625 2.0l0 3.734375l-1.078125 0l0 -10.125l1.078125 0l0 3.0625q0 0.546875 -0.046875 0.921875l0.0625 0q0.328125 -0.515625 0.90625 -0.8125q0.59375 -0.296875 1.34375 -0.296875q1.3125 0 1.96875 0.625q0.65625 0.625 0.65625 1.96875l0 4.65625l-1.078125 0zm2.1647797 -7.125l1.15625 0l1.5625 4.0625q0.515625 1.390625 0.640625 2.015625l0.046875 0q0.078125 -0.34375 0.34375 -1.140625q0.28125 -0.8125 1.78125 -4.9375l1.15625 0l-3.0625 8.109375q-0.453125 1.203125 -1.0625 1.703125q-0.609375 0.515625 -1.5 0.515625q-0.5 0 -0.96875 -0.109375l0 -0.875q0.359375 0.078125 0.796875 0.078125q1.109375 0 1.59375 -1.25l0.390625 -1.015625l-2.875 -7.15625zm12.7005005 6.171875l-0.0625 0q-0.75 1.078125 -2.234375 1.078125q-1.40625 0 -2.1875 -0.953125q-0.765625 -0.953125 -0.765625 -2.71875q0 -1.765625 0.78125 -2.734375q0.78125 -0.984375 2.171875 -0.984375q1.453125 0 2.21875 1.0625l0.09375 0l-0.046875 -0.515625l-0.03125 -0.5l0 -2.90625l1.078125 0l0 10.125l-0.875 0l-0.140625 -0.953125zm-2.15625 0.171875q1.109375 0 1.59375 -0.59375q0.5 -0.609375 0.5 -1.9375l0 -0.234375q0 -1.515625 -0.5 -2.15625q-0.5 -0.65625 -1.609375 -0.65625q-0.953125 0 -1.453125 0.75q-0.5 0.734375 -0.5 2.078125q0 1.359375 0.5 2.0625q0.5 0.6875 1.46875 0.6875zm8.729889 -6.484375q0.46875 0 0.84375 0.078125l-0.140625 1.0q-0.453125 -0.09375 -0.78125 -0.09375q-0.875 0 -1.5 0.703125q-0.609375 0.703125 -0.609375 1.75l0 3.828125l-1.078125 0l0 -7.125l0.890625 0l0.125 1.3125l0.0625 0q0.390625 -0.703125 0.953125 -1.078125q0.5625 -0.375 1.234375 -0.375zm6.5655823 7.265625l-0.21875 -1.015625l-0.046875 0q-0.53125 0.671875 -1.0625 0.90625q-0.53125 0.234375 -1.328125 0.234375q-1.0625 0 -1.671875 -0.546875q-0.59375 -0.546875 -0.59375 -1.546875q0 -2.15625 3.453125 -2.265625l1.21875 -0.046875l0 -0.4375q0 -0.84375 -0.359375 -1.234375q-0.359375 -0.40625 -1.15625 -0.40625q-0.890625 0 -2.015625 0.546875l-0.34375 -0.828125q0.53125 -0.28125 1.15625 -0.4375q0.640625 -0.171875 1.265625 -0.171875q1.28125 0 1.890625 0.5625q0.609375 0.5625 0.609375 1.8125l0 4.875l-0.796875 0zm-2.4375 -0.765625q1.0 0 1.578125 -0.546875q0.578125 -0.5625 0.578125 -1.546875l0 -0.640625l-1.078125 0.03125q-1.28125 0.046875 -1.859375 0.40625q-0.5625 0.359375 -0.5625 1.109375q0 0.578125 0.34375 0.890625q0.359375 0.296875 1.0 0.296875zm5.3031006 0.078125q0 -0.4375 0.203125 -0.65625q0.203125 -0.234375 0.5625 -0.234375q0.390625 0 0.59375 0.234375q0.21875 0.21875 0.21875 0.65625q0 0.421875 -0.21875 0.65625q-0.21875 0.21875 -0.59375 0.21875q-0.328125 0 -0.546875 -0.203125q-0.21875 -0.203125 -0.21875 -0.671875zm0 -5.75q0 -0.875 0.765625 -0.875q0.8125 0 0.8125 0.875q0 0.421875 -0.21875 0.65625q-0.21875 0.21875 -0.59375 0.21875q-0.328125 0 -0.546875 -0.203125q-0.21875 -0.203125 -0.21875 -0.671875zm7.0311737 6.5625q-0.703125 0 -1.28125 -0.25q-0.578125 -0.265625 -0.96875 -0.796875l-0.078125 0q0.078125 0.625 0.078125 1.1875l0 2.9375l-1.078125 0l0 -10.328125l0.890625 0l0.140625 0.96875l0.046875 0q0.421875 -0.578125 0.96875 -0.84375q0.5625 -0.265625 1.28125 -0.265625q1.421875 0 2.1875 0.96875q0.765625 0.96875 0.765625 2.71875q0 1.765625 -0.78125 2.734375q-0.78125 0.96875 -2.171875 0.96875zm-0.15625 -6.46875q-1.09375 0 -1.59375 0.609375q-0.484375 0.59375 -0.5 1.921875l0 0.234375q0 1.515625 0.5 2.15625q0.515625 0.640625 1.609375 0.640625q0.9375 0 1.453125 -0.734375q0.53125 -0.75 0.53125 -2.0625q0 -1.34375 -0.53125 -2.046875q-0.515625 -0.71875 -1.46875 -0.71875zm8.261139 -0.921875q0.46875 0 0.84375 0.078125l-0.140625 1.0q-0.453125 -0.09375 -0.78125 -0.09375q-0.875 0 -1.5 0.703125q-0.609375 0.703125 -0.609375 1.75l0 3.828125l-1.078125 0l0 -7.125l0.890625 0l0.125 1.3125l0.0625 0q0.390625 -0.703125 0.953125 -1.078125q0.5625 -0.375 1.234375 -0.375zm5.1905823 7.390625q-1.578125 0 -2.5 -0.953125q-0.90625 -0.96875 -0.90625 -2.671875q0 -1.734375 0.84375 -2.75q0.859375 -1.015625 2.28125 -1.015625q1.34375 0 2.125 0.890625q0.78125 0.875 0.78125 2.328125l0 0.671875l-4.90625 0q0.03125 1.265625 0.625 1.921875q0.609375 0.640625 1.703125 0.640625q1.140625 0 2.265625 -0.484375l0 0.96875q-0.5625 0.25 -1.078125 0.34375q-0.515625 0.109375 -1.234375 0.109375zm-0.296875 -6.484375q-0.859375 0 -1.375 0.5625q-0.5 0.5625 -0.59375 1.546875l3.734375 0q0 -1.015625 -0.453125 -1.5625q-0.453125 -0.546875 -1.3125 -0.546875zm6.3213043 6.359375l-2.703125 -7.125l1.15625 0l1.53125 4.21875q0.53125 1.484375 0.625 1.9375l0.046875 0q0.0625 -0.359375 0.4375 -1.4375q0.390625 -1.078125 1.71875 -4.71875l1.15625 0l-2.703125 7.125l-1.265625 0zm6.1927032 0l-1.078125 0l0 -7.125l1.078125 0l0 7.125zm-1.171875 -9.0625q0 -0.375 0.1875 -0.546875q0.1875 -0.171875 0.453125 -0.171875q0.265625 0 0.453125 0.171875q0.1875 0.171875 0.1875 0.546875q0 0.359375 -0.1875 0.546875q-0.1875 0.171875 -0.453125 0.171875q-0.265625 0 -0.453125 -0.171875q-0.1875 -0.1875 -0.1875 -0.546875zm9.6210785 5.484375q0 1.75 -0.875 2.734375q-0.875 0.96875 -2.421875 0.96875q-0.953125 0 -1.703125 -0.4375q-0.734375 -0.453125 -1.140625 -1.296875q-0.40625 -0.84375 -0.40625 -1.96875q0 -1.734375 0.875 -2.703125q0.875 -0.984375 2.421875 -0.984375q1.484375 0 2.359375 1.0q0.890625 1.0 0.890625 2.6875zm-5.421875 0q0 1.375 0.546875 2.09375q0.546875 0.703125 1.59375 0.703125q1.0625 0 1.609375 -0.703125q0.5625 -0.71875 0.5625 -2.09375q0 -1.359375 -0.5625 -2.0625q-0.546875 -0.703125 -1.609375 -0.703125q-1.0625 0 -1.609375 0.703125q-0.53125 0.6875 -0.53125 2.0625zm8.331497 -3.546875l0 4.625q0 0.859375 0.390625 1.296875q0.40625 0.421875 1.25 0.421875q1.125 0 1.640625 -0.609375q0.515625 -0.609375 0.515625 -2.0l0 -3.734375l1.078125 0l0 7.125l-0.890625 0l-0.15625 -0.953125l-0.0625 0q-0.328125 0.53125 -0.921875 0.8125q-0.578125 0.265625 -1.34375 0.265625q-1.296875 0 -1.953125 -0.609375q-0.640625 -0.625 -0.640625 -1.984375l0 -4.65625l1.09375 0zm11.774155 5.171875q0 1.0 -0.75 1.546875q-0.734375 0.53125 -2.078125 0.53125q-1.421875 0 -2.21875 -0.4375l0 -1.015625q0.515625 0.265625 1.109375 0.421875q0.59375 0.140625 1.140625 0.140625q0.84375 0 1.296875 -0.265625q0.453125 -0.265625 0.453125 -0.828125q0 -0.40625 -0.359375 -0.703125q-0.359375 -0.296875 -1.40625 -0.703125q-1.0 -0.375 -1.421875 -0.640625q-0.421875 -0.28125 -0.625 -0.625q-0.203125 -0.359375 -0.203125 -0.84375q0 -0.875 0.703125 -1.375q0.71875 -0.515625 1.953125 -0.515625q1.15625 0 2.25 0.46875l-0.375 0.875q-1.078125 -0.4375 -1.953125 -0.4375q-0.765625 0 -1.15625 0.25q-0.390625 0.234375 -0.390625 0.65625q0 0.28125 0.140625 0.484375q0.15625 0.203125 0.46875 0.390625q0.328125 0.171875 1.25 0.53125q1.28125 0.453125 1.71875 0.921875q0.453125 0.46875 0.453125 1.171875z" fill-rule="nonzero"/><path fill="#000000" fill-opacity="0.0" d="m299.34122 126.073494l115.46457 0l0 29.574806l-115.46457 0z" fill-rule="evenodd"/><path fill="#000000" d="m314.37247 147.87349l0 -4.609375q0 -0.875 -0.40625 -1.296875q-0.390625 -0.4375 -1.234375 -0.4375q-1.125 0 -1.65625 0.609375q-0.515625 0.609375 -0.515625 2.0l0 3.734375l-1.078125 0l0 -10.125l1.078125 0l0 3.0625q0 0.546875 -0.046875 0.921875l0.0625 0q0.328125 -0.515625 0.90625 -0.8125q0.59375 -0.296875 1.34375 -0.296875q1.3125 0 1.96875 0.625q0.65625 0.625 0.65625 1.96875l0 4.65625l-1.078125 0zm2.1647644 -7.125l1.15625 0l1.5625 4.0625q0.515625 1.390625 0.640625 2.015625l0.046875 0q0.078125 -0.34375 0.34375 -1.140625q0.28125 -0.8125 1.78125 -4.9375l1.15625 0l-3.0625 8.109375q-0.453125 1.203125 -1.0625 1.703125q-0.609375 0.515625 -1.5 0.515625q-0.5 0 -0.96875 -0.109375l0 -0.875q0.359375 0.078125 0.796875 0.078125q1.109375 0 1.59375 -1.25l0.390625 -1.015625l-2.875 -7.15625zm12.7005005 6.171875l-0.0625 0q-0.75 1.078125 -2.234375 1.078125q-1.40625 0 -2.1875 -0.953125q-0.765625 -0.953125 -0.765625 -2.71875q0 -1.765625 0.78125 -2.734375q0.78125 -0.984375 2.171875 -0.984375q1.453125 0 2.21875 1.0625l0.09375 0l-0.046875 -0.515625l-0.03125 -0.5l0 -2.90625l1.078125 0l0 10.125l-0.875 0l-0.140625 -0.953125zm-2.15625 0.171875q1.109375 0 1.59375 -0.59375q0.5 -0.609375 0.5 -1.9375l0 -0.234375q0 -1.515625 -0.5 -2.15625q-0.5 -0.65625 -1.609375 -0.65625q-0.953125 0 -1.453125 0.75q-0.5 0.734375 -0.5 2.078125q0 1.359375 0.5 2.0625q0.5 0.6875 1.46875 0.6875zm8.729889 -6.484375q0.46875 0 0.84375 0.078125l-0.140625 1.0q-0.453125 -0.09375 -0.78125 -0.09375q-0.875 0 -1.5 0.703125q-0.609375 0.703125 -0.609375 1.75l0 3.828125l-1.078125 0l0 -7.125l0.890625 0l0.125 1.3125l0.0625 0q0.390625 -0.703125 0.953125 -1.078125q0.5625 -0.375 1.234375 -0.375zm6.5655823 7.265625l-0.21875 -1.015625l-0.046875 0q-0.53125 0.671875 -1.0625 0.90625q-0.53125 0.234375 -1.328125 0.234375q-1.0625 0 -1.671875 -0.546875q-0.59375 -0.546875 -0.59375 -1.546875q0 -2.15625 3.453125 -2.265625l1.21875 -0.046875l0 -0.4375q0 -0.84375 -0.359375 -1.234375q-0.359375 -0.40625 -1.15625 -0.40625q-0.890625 0 -2.015625 0.546875l-0.34375 -0.828125q0.53125 -0.28125 1.15625 -0.4375q0.640625 -0.171875 1.265625 -0.171875q1.28125 0 1.890625 0.5625q0.609375 0.5625 0.609375 1.8125l0 4.875l-0.796875 0zm-2.4375 -0.765625q1.0 0 1.578125 -0.546875q0.578125 -0.5625 0.578125 -1.546875l0 -0.640625l-1.078125 0.03125q-1.28125 0.046875 -1.859375 0.40625q-0.5625 0.359375 -0.5625 1.109375q0 0.578125 0.34375 0.890625q0.359375 0.296875 1.0 0.296875zm5.3031006 0.078125q0 -0.4375 0.203125 -0.65625q0.203125 -0.234375 0.5625 -0.234375q0.390625 0 0.59375 0.234375q0.21875 0.21875 0.21875 0.65625q0 0.421875 -0.21875 0.65625q-0.21875 0.21875 -0.59375 0.21875q-0.328125 0 -0.546875 -0.203125q-0.21875 -0.203125 -0.21875 -0.671875zm0 -5.75q0 -0.875 0.765625 -0.875q0.8125 0 0.8125 0.875q0 0.421875 -0.21875 0.65625q-0.21875 0.21875 -0.59375 0.21875q-0.328125 0 -0.546875 -0.203125q-0.21875 -0.203125 -0.21875 -0.671875zm7.031189 6.5625q-0.703125 0 -1.28125 -0.25q-0.578125 -0.265625 -0.96875 -0.796875l-0.078125 0q0.078125 0.625 0.078125 1.1875l0 2.9375l-1.078125 0l0 -10.328125l0.890625 0l0.140625 0.96875l0.046875 0q0.421875 -0.578125 0.96875 -0.84375q0.5625 -0.265625 1.28125 -0.265625q1.421875 0 2.1875 0.96875q0.765625 0.96875 0.765625 2.71875q0 1.765625 -0.78125 2.734375q-0.78125 0.96875 -2.171875 0.96875zm-0.15625 -6.46875q-1.09375 0 -1.59375 0.609375q-0.484375 0.59375 -0.5 1.921875l0 0.234375q0 1.515625 0.5 2.15625q0.515625 0.640625 1.609375 0.640625q0.9375 0 1.453125 -0.734375q0.53125 -0.75 0.53125 -2.0625q0 -1.34375 -0.53125 -2.046875q-0.515625 -0.71875 -1.46875 -0.71875zm8.261139 -0.921875q0.46875 0 0.84375 0.078125l-0.140625 1.0q-0.453125 -0.09375 -0.78125 -0.09375q-0.875 0 -1.5 0.703125q-0.609375 0.703125 -0.609375 1.75l0 3.828125l-1.078125 0l0 -7.125l0.890625 0l0.125 1.3125l0.0625 0q0.390625 -0.703125 0.953125 -1.078125q0.5625 -0.375 1.234375 -0.375zm5.1905823 7.390625q-1.578125 0 -2.5 -0.953125q-0.90625 -0.96875 -0.90625 -2.671875q0 -1.734375 0.84375 -2.75q0.859375 -1.015625 2.28125 -1.015625q1.34375 0 2.125 0.890625q0.78125 0.875 0.78125 2.328125l0 0.671875l-4.90625 0q0.03125 1.265625 0.625 1.921875q0.609375 0.640625 1.703125 0.640625q1.140625 0 2.265625 -0.484375l0 0.96875q-0.5625 0.25 -1.078125 0.34375q-0.515625 0.109375 -1.234375 0.109375zm-0.296875 -6.484375q-0.859375 0 -1.375 0.5625q-0.5 0.5625 -0.59375 1.546875l3.734375 0q0 -1.015625 -0.453125 -1.5625q-0.453125 -0.546875 -1.3125 -0.546875zm6.321289 6.359375l-2.703125 -7.125l1.15625 0l1.53125 4.21875q0.53125 1.484375 0.625 1.9375l0.046875 0q0.0625 -0.359375 0.4375 -1.4375q0.390625 -1.078125 1.71875 -4.71875l1.15625 0l-2.703125 7.125l-1.265625 0zm6.1927185 0l-1.078125 0l0 -7.125l1.078125 0l0 7.125zm-1.171875 -9.0625q0 -0.375 0.1875 -0.546875q0.1875 -0.171875 0.453125 -0.171875q0.265625 0 0.453125 0.171875q0.1875 0.171875 0.1875 0.546875q0 0.359375 -0.1875 0.546875q-0.1875 0.171875 -0.453125 0.171875q-0.265625 0 -0.453125 -0.171875q-0.1875 -0.1875 -0.1875 -0.546875zm9.621063 5.484375q0 1.75 -0.875 2.734375q-0.875 0.96875 -2.421875 0.96875q-0.953125 0 -1.703125 -0.4375q-0.734375 -0.453125 -1.140625 -1.296875q-0.40625 -0.84375 -0.40625 -1.96875q0 -1.734375 0.875 -2.703125q0.875 -0.984375 2.421875 -0.984375q1.484375 0 2.359375 1.0q0.890625 1.0 0.890625 2.6875zm-5.421875 0q0 1.375 0.546875 2.09375q0.546875 0.703125 1.59375 0.703125q1.0625 0 1.609375 -0.703125q0.5625 -0.71875 0.5625 -2.09375q0 -1.359375 -0.5625 -2.0625q-0.546875 -0.703125 -1.609375 -0.703125q-1.0625 0 -1.609375 0.703125q-0.53125 0.6875 -0.53125 2.0625zm8.331512 -3.546875l0 4.625q0 0.859375 0.390625 1.296875q0.40625 0.421875 1.25 0.421875q1.125 0 1.640625 -0.609375q0.515625 -0.609375 0.515625 -2.0l0 -3.734375l1.078125 0l0 7.125l-0.890625 0l-0.15625 -0.953125l-0.0625 0q-0.328125 0.53125 -0.921875 0.8125q-0.578125 0.265625 -1.34375 0.265625q-1.296875 0 -1.953125 -0.609375q-0.640625 -0.625 -0.640625 -1.984375l0 -4.65625l1.09375 0zm11.774139 5.171875q0 1.0 -0.75 1.546875q-0.734375 0.53125 -2.078125 0.53125q-1.421875 0 -2.21875 -0.4375l0 -1.015625q0.515625 0.265625 1.109375 0.421875q0.59375 0.140625 1.140625 0.140625q0.84375 0 1.296875 -0.265625q0.453125 -0.265625 0.453125 -0.828125q0 -0.40625 -0.359375 -0.703125q-0.359375 -0.296875 -1.40625 -0.703125q-1.0 -0.375 -1.421875 -0.640625q-0.421875 -0.28125 -0.625 -0.625q-0.203125 -0.359375 -0.203125 -0.84375q0 -0.875 0.703125 -1.375q0.71875 -0.515625 1.953125 -0.515625q1.15625 0 2.25 0.46875l-0.375 0.875q-1.078125 -0.4375 -1.953125 -0.4375q-0.765625 0 -1.15625 0.25q-0.390625 0.234375 -0.390625 0.65625q0 0.28125 0.140625 0.484375q0.15625 0.203125 0.46875 0.390625q0.328125 0.171875 1.25 0.53125q1.28125 0.453125 1.71875 0.921875q0.453125 0.46875 0.453125 1.171875z" fill-rule="nonzero"/></g></svg>