<svg version="1.1" viewBox="0.0 0.0 694.1732283464567 187.64304461942257" fill="none" stroke="none" stroke-linecap="square" stroke-miterlimit="10" xmlns:xlink="http://www.w3.org/1999/xlink" xmlns="http://www.w3.org/2000/svg"><clipPath id="p.0"><path d="m0 0l694.1732 0l0 187.64305l-694.1732 0l0 -187.64305z" clip-rule="nonzero"/></clipPath><g clip-path="url(#p.0)"><path fill="#000000" fill-opacity="0.0" d="m0 0l694.1732 0l0 187.64305l-694.1732 0z" fill-rule="evenodd"/><path fill="#999999" d="m522.60614 112.070496l20.126038 0l0 22.11023l-20.126038 0z" fill-rule="evenodd"/><path stroke="#000000" stroke-width="1.0" stroke-linejoin="round" stroke-linecap="butt" d="m522.60614 112.070496l20.126038 0l0 22.11023l-20.126038 0z" fill-rule="evenodd"/><path fill="#4f8bc4" d="m545.66254 112.070496l20.125977 0l0 22.110245l-20.125977 0z" fill-rule="evenodd"/><path stroke="#000000" stroke-width="1.0" stroke-linejoin="round" stroke-linecap="butt" d="m545.66254 112.070496l20.125977 0l0 22.110245l-20.125977 0z" fill-rule="evenodd"/><path fill="#999999" d="m499.54843 112.070496l20.126007 0l0 22.11023l-20.126007 0z" fill-rule="evenodd"/><path stroke="#000000" stroke-width="1.0" stroke-linejoin="round" stroke-linecap="butt" d="m499.54843 112.070496l20.126007 0l0 22.11023l-20.126007 0z" fill-rule="evenodd"/><path fill="#999999" d="m472.6956 112.070496l20.126007 0l0 22.11023l-20.126007 0z" fill-rule="evenodd"/><path stroke="#000000" stroke-width="1.0" stroke-linejoin="round" stroke-linecap="butt" d="m472.6956 112.070496l20.126007 0l0 22.11023l-20.126007 0z" fill-rule="evenodd"/><path fill="#000000" fill-opacity="0.0" d="m110.64829 142.72966l540.0315 0.50393677" fill-rule="evenodd"/><path stroke="#d89f39" stroke-width="8.0" stroke-linejoin="round" stroke-linecap="butt" d="m110.64829 142.72966l492.03152 0.45913696" fill-rule="evenodd"/><path fill="#d89f39" stroke="#d89f39" stroke-width="8.0" stroke-linecap="butt" d="m602.6675 156.40266l36.317078 -13.179977l-36.29242 -13.247742z" fill-rule="evenodd"/><path fill="#000000" fill-opacity="0.0" d="m624.87146 137.82939l80.59845 0l0 29.921265l-80.59845 0z" fill-rule="evenodd"/><path fill="#000000" d="m637.3246 158.86377q0.28125 0 0.546875 -0.03125q0.265625 -0.046875 0.421875 -0.09375l0 0.828125q-0.171875 0.078125 -0.515625 0.125q-0.34375 0.0625 -0.609375 0.0625q-2.078125 0 -2.078125 -2.171875l0 -4.25l-1.015625 0l0 -0.515625l1.015625 -0.453125l0.453125 -1.515625l0.625 0l0 1.65625l2.078125 0l0 0.828125l-2.078125 0l0 4.203125q0 0.640625 0.3125 0.984375q0.3125 0.34375 0.84375 0.34375zm3.4708252 0.765625l-1.078125 0l0 -7.125l1.078125 0l0 7.125zm-1.171875 -9.0625q0 -0.375 0.1875 -0.546875q0.1875 -0.171875 0.453125 -0.171875q0.265625 0 0.453125 0.171875q0.1875 0.171875 0.1875 0.546875q0 0.359375 -0.1875 0.546875q-0.1875 0.171875 -0.453125 0.171875q-0.265625 0 -0.453125 -0.171875q-0.1875 -0.1875 -0.1875 -0.546875zm12.558594 9.0625l0 -4.640625q0 -0.859375 -0.359375 -1.28125q-0.359375 -0.421875 -1.140625 -0.421875q-1.0 0 -1.484375 0.578125q-0.484375 0.578125 -0.484375 1.78125l0 3.984375l-1.078125 0l0 -4.640625q0 -0.859375 -0.375 -1.28125q-0.359375 -0.421875 -1.125 -0.421875q-1.015625 0 -1.5 0.609375q-0.46875 0.609375 -0.46875 2.0l0 3.734375l-1.078125 0l0 -7.125l0.890625 0l0.171875 0.96875l0.046875 0q0.3125 -0.515625 0.859375 -0.8125q0.5625 -0.296875 1.25 -0.296875q1.671875 0 2.1875 1.21875l0.046875 0q0.328125 -0.5625 0.921875 -0.890625q0.609375 -0.328125 1.390625 -0.328125q1.203125 0 1.796875 0.625q0.609375 0.625 0.609375 1.984375l0 4.65625l-1.078125 0zm6.319336 0.125q-1.578125 0 -2.5 -0.953125q-0.90625 -0.96875 -0.90625 -2.671875q0 -1.734375 0.84375 -2.75q0.859375 -1.015625 2.28125 -1.015625q1.34375 0 2.125 0.890625q0.78125 0.875 0.78125 2.328125l0 0.671875l-4.90625 0q0.03125 1.265625 0.625 1.921875q0.609375 0.640625 1.703125 0.640625q1.140625 0 2.265625 -0.484375l0 0.96875q-0.5625 0.25 -1.078125 0.34375q-0.515625 0.109375 -1.234375 0.109375zm-0.296875 -6.484375q-0.859375 0 -1.375 0.5625q-0.5 0.5625 -0.59375 1.546875l3.734375 0q0 -1.015625 -0.453125 -1.5625q-0.453125 -0.546875 -1.3125 -0.546875z" fill-rule="nonzero"/><path fill="#999999" d="m396.10532 112.226585l20.125977 0l0 22.110237l-20.125977 0z" fill-rule="evenodd"/><path stroke="#000000" stroke-width="1.0" stroke-linejoin="round" stroke-linecap="butt" d="m396.10532 112.226585l20.125977 0l0 22.110237l-20.125977 0z" fill-rule="evenodd"/><path fill="#999999" d="m426.57944 112.070496l20.125977 0l0 22.11023l-20.125977 0z" fill-rule="evenodd"/><path stroke="#000000" stroke-width="1.0" stroke-linejoin="round" stroke-linecap="butt" d="m426.57944 112.070496l20.125977 0l0 22.11023l-20.125977 0z" fill-rule="evenodd"/><path fill="#999999" d="m356.4098 112.08138l20.125977 0l0 22.110237l-20.125977 0z" fill-rule="evenodd"/><path stroke="#000000" stroke-width="1.0" stroke-linejoin="round" stroke-linecap="butt" d="m356.4098 112.08138l20.125977 0l0 22.110237l-20.125977 0z" fill-rule="evenodd"/><path fill="#000000" fill-opacity="0.0" d="m352.30972 106.67183l69.4173 0l0 45.291336l-69.4173 0z" fill-rule="evenodd"/><path stroke="#434343" stroke-width="2.0" stroke-linejoin="round" stroke-linecap="butt" d="m352.30972 106.67183l69.4173 0l0 45.291336l-69.4173 0z" fill-rule="evenodd"/><path fill="#000000" fill-opacity="0.0" d="m424.41733 106.67182l70.74014 0l0 45.291344l-70.74014 0z" fill-rule="evenodd"/><path stroke="#434343" stroke-width="2.0" stroke-linejoin="round" stroke-linecap="butt" d="m424.41733 106.67182l70.74014 0l0 45.291344l-70.74014 0z" fill-rule="evenodd"/><path fill="#000000" fill-opacity="0.0" d="m497.65878 106.67182l70.74014 0l0 45.291344l-70.74014 0z" fill-rule="evenodd"/><path stroke="#434343" stroke-width="2.0" stroke-linejoin="round" stroke-linecap="butt" d="m497.65878 106.67182l70.74014 0l0 45.291344l-70.74014 0z" fill-rule="evenodd"/><path fill="#000000" fill-opacity="0.0" d="m543.95355 151.95358l0 12.5l-72.81888 0l0 -12.468506" fill-rule="evenodd"/><path stroke="#000000" stroke-width="1.0" stroke-linejoin="round" stroke-linecap="butt" d="m543.95355 151.95358l0 12.5l-72.81888 0l0 -9.041428" fill-rule="evenodd"/><path fill="#000000" stroke="#000000" stroke-width="1.0" stroke-linecap="butt" d="m471.13467 155.41216l1.1245728 1.124588l-1.1245728 -3.0897675l-1.1245728 3.0897675z" fill-rule="evenodd"/><path fill="#999999" d="m381.45087 123.131l0 0c0 -0.6349106 0.5993042 -1.1496048 1.3385925 -1.1496048l0 0c0.73928833 0 1.3385925 0.5146942 1.3385925 1.1496048l0 0c0 0.6349106 -0.5993042 1.1496048 -1.3385925 1.1496048l0 0c-0.73928833 0 -1.3385925 -0.5146942 -1.3385925 -1.1496048z" fill-rule="evenodd"/><path stroke="#000000" stroke-width="1.0" stroke-linejoin="round" stroke-linecap="butt" d="m381.45087 123.131l0 0c0 -0.6349106 0.5993042 -1.1496048 1.3385925 -1.1496048l0 0c0.73928833 0 1.3385925 0.5146942 1.3385925 1.1496048l0 0c0 0.6349106 -0.5993042 1.1496048 -1.3385925 1.1496048l0 0c-0.73928833 0 -1.3385925 -0.5146942 -1.3385925 -1.1496048z" fill-rule="evenodd"/><path fill="#999999" d="m385.24597 123.131l0 0c0 -0.6349106 0.5993042 -1.1496048 1.3385925 -1.1496048l0 0c0.7392578 0 1.338562 0.5146942 1.338562 1.1496048l0 0c0 0.6349106 -0.5993042 1.1496048 -1.338562 1.1496048l0 0c-0.73928833 0 -1.3385925 -0.5146942 -1.3385925 -1.1496048z" fill-rule="evenodd"/><path stroke="#000000" stroke-width="1.0" stroke-linejoin="round" stroke-linecap="butt" d="m385.24597 123.131l0 0c0 -0.6349106 0.5993042 -1.1496048 1.3385925 -1.1496048l0 0c0.7392578 0 1.338562 0.5146942 1.338562 1.1496048l0 0c0 0.6349106 -0.5993042 1.1496048 -1.338562 1.1496048l0 0c-0.73928833 0 -1.3385925 -0.5146942 -1.3385925 -1.1496048z" fill-rule="evenodd"/><path fill="#999999" d="m389.04105 123.131l0 0c0 -0.6349106 0.5993042 -1.1496048 1.3385925 -1.1496048l0 0c0.73928833 0 1.3385925 0.5146942 1.3385925 1.1496048l0 0c0 0.6349106 -0.5993042 1.1496048 -1.3385925 1.1496048l0 0c-0.73928833 0 -1.3385925 -0.5146942 -1.3385925 -1.1496048z" fill-rule="evenodd"/><path stroke="#000000" stroke-width="1.0" stroke-linejoin="round" stroke-linecap="butt" d="m389.04105 123.131l0 0c0 -0.6349106 0.5993042 -1.1496048 1.3385925 -1.1496048l0 0c0.73928833 0 1.3385925 0.5146942 1.3385925 1.1496048l0 0c0 0.6349106 -0.5993042 1.1496048 -1.3385925 1.1496048l0 0c-0.73928833 0 -1.3385925 -0.5146942 -1.3385925 -1.1496048z" fill-rule="evenodd"/><path fill="#999999" d="m454.55997 123.131l0 0c0 -0.6349106 0.5993042 -1.1496048 1.338562 -1.1496048l0 0c0.73928833 0 1.3385925 0.5146942 1.3385925 1.1496048l0 0c0 0.6349106 -0.5993042 1.1496048 -1.3385925 1.1496048l0 0c-0.7392578 0 -1.338562 -0.5146942 -1.338562 -1.1496048z" fill-rule="evenodd"/><path stroke="#000000" stroke-width="1.0" stroke-linejoin="round" stroke-linecap="butt" d="m454.55997 123.131l0 0c0 -0.6349106 0.5993042 -1.1496048 1.338562 -1.1496048l0 0c0.73928833 0 1.3385925 0.5146942 1.3385925 1.1496048l0 0c0 0.6349106 -0.5993042 1.1496048 -1.3385925 1.1496048l0 0c-0.7392578 0 -1.338562 -0.5146942 -1.338562 -1.1496048z" fill-rule="evenodd"/><path fill="#000000" fill-opacity="0.0" d="m110.16535 71.71391l540.53546 -0.50393677" fill-rule="evenodd"/><path stroke="#d89f39" stroke-width="8.0" stroke-linejoin="round" stroke-linecap="butt" d="m110.16535 71.71391l492.53546 -0.45919037" fill-rule="evenodd"/><path fill="#d89f39" stroke="#d89f39" stroke-width="8.0" stroke-linecap="butt" d="m602.71313 84.468575l36.29242 -13.247696l-36.317078 -13.180008z" fill-rule="evenodd"/><path fill="#999999" d="m458.35504 123.131l0 0c0 -0.6349106 0.5993042 -1.1496048 1.3385925 -1.1496048l0 0c0.73928833 0 1.3385925 0.5146942 1.3385925 1.1496048l0 0c0 0.6349106 -0.5993042 1.1496048 -1.3385925 1.1496048l0 0c-0.73928833 0 -1.3385925 -0.5146942 -1.3385925 -1.1496048z" fill-rule="evenodd"/><path stroke="#000000" stroke-width="1.0" stroke-linejoin="round" stroke-linecap="butt" d="m458.35504 123.131l0 0c0 -0.6349106 0.5993042 -1.1496048 1.3385925 -1.1496048l0 0c0.73928833 0 1.3385925 0.5146942 1.3385925 1.1496048l0 0c0 0.6349106 -0.5993042 1.1496048 -1.3385925 1.1496048l0 0c-0.73928833 0 -1.3385925 -0.5146942 -1.3385925 -1.1496048z" fill-rule="evenodd"/><path fill="#999999" d="m462.15015 123.131l0 0c0 -0.6349106 0.5993042 -1.1496048 1.3385925 -1.1496048l0 0c0.7392578 0 1.338562 0.5146942 1.338562 1.1496048l0 0c0 0.6349106 -0.5993042 1.1496048 -1.338562 1.1496048l0 0c-0.73928833 0 -1.3385925 -0.5146942 -1.3385925 -1.1496048z" fill-rule="evenodd"/><path stroke="#000000" stroke-width="1.0" stroke-linejoin="round" stroke-linecap="butt" d="m462.15015 123.131l0 0c0 -0.6349106 0.5993042 -1.1496048 1.3385925 -1.1496048l0 0c0.7392578 0 1.338562 0.5146942 1.338562 1.1496048l0 0c0 0.6349106 -0.5993042 1.1496048 -1.338562 1.1496048l0 0c-0.73928833 0 -1.3385925 -0.5146942 -1.3385925 -1.1496048z" fill-rule="evenodd"/><path fill="#000000" fill-opacity="0.0" d="m624.87146 65.8294l80.59845 0l0 29.921257l-80.59845 0z" fill-rule="evenodd"/><path fill="#000000" d="m637.3246 86.86377q0.28125 0 0.546875 -0.03125q0.265625 -0.046875 0.421875 -0.09375l0 0.828125q-0.171875 0.078125 -0.515625 0.125q-0.34375 0.0625 -0.609375 0.0625q-2.078125 0 -2.078125 -2.171875l0 -4.25l-1.015625 0l0 -0.515625l1.015625 -0.453125l0.453125 -1.515625l0.625 0l0 1.65625l2.078125 0l0 0.828125l-2.078125 0l0 4.203125q0 0.640625 0.3125 0.984375q0.3125 0.34375 0.84375 0.34375zm3.4708252 0.765625l-1.078125 0l0 -7.125l1.078125 0l0 7.125zm-1.171875 -9.0625q0 -0.375 0.1875 -0.546875q0.1875 -0.171875 0.453125 -0.171875q0.265625 0 0.453125 0.171875q0.1875 0.171875 0.1875 0.546875q0 0.359375 -0.1875 0.546875q-0.1875 0.171875 -0.453125 0.171875q-0.265625 0 -0.453125 -0.171875q-0.1875 -0.1875 -0.1875 -0.546875zm12.558594 9.0625l0 -4.640625q0 -0.859375 -0.359375 -1.28125q-0.359375 -0.421875 -1.140625 -0.421875q-1.0 0 -1.484375 0.578125q-0.484375 0.578125 -0.484375 1.78125l0 3.984375l-1.078125 0l0 -4.640625q0 -0.859375 -0.375 -1.28125q-0.359375 -0.421875 -1.125 -0.421875q-1.015625 0 -1.5 0.609375q-0.46875 0.609375 -0.46875 2.0l0 3.734375l-1.078125 0l0 -7.125l0.890625 0l0.171875 0.96875l0.046875 0q0.3125 -0.515625 0.859375 -0.8125q0.5625 -0.296875 1.25 -0.296875q1.671875 0 2.1875 1.21875l0.046875 0q0.328125 -0.5625 0.921875 -0.890625q0.609375 -0.328125 1.390625 -0.328125q1.203125 0 1.796875 0.625q0.609375 0.625 0.609375 1.984375l0 4.65625l-1.078125 0zm6.319336 0.125q-1.578125 0 -2.5 -0.953125q-0.90625 -0.96875 -0.90625 -2.671875q0 -1.734375 0.84375 -2.75q0.859375 -1.015625 2.28125 -1.015625q1.34375 0 2.125 0.890625q0.78125 0.875 0.78125 2.328125l0 0.671875l-4.90625 0q0.03125 1.265625 0.625 1.921875q0.609375 0.640625 1.703125 0.640625q1.140625 0 2.265625 -0.484375l0 0.96875q-0.5625 0.25 -1.078125 0.34375q-0.515625 0.109375 -1.234375 0.109375zm-0.296875 -6.484375q-0.859375 0 -1.375 0.5625q-0.5 0.5625 -0.59375 1.546875l3.734375 0q0 -1.015625 -0.453125 -1.5625q-0.453125 -0.546875 -1.3125 -0.546875z" fill-rule="nonzero"/><path fill="#999999" d="m396.10532 40.22659l20.125977 0l0 22.110237l-20.125977 0z" fill-rule="evenodd"/><path stroke="#000000" stroke-width="1.0" stroke-linejoin="round" stroke-linecap="butt" d="m396.10532 40.22659l20.125977 0l0 22.110237l-20.125977 0z" fill-rule="evenodd"/><path fill="#000000" fill-opacity="0.0" d="m206.77165 34.671917l214.96062 0l0 45.29134l-214.96062 0z" fill-rule="evenodd"/><path stroke="#434343" stroke-width="2.0" stroke-linejoin="round" stroke-linecap="butt" d="m206.77165 34.671917l214.96062 0l0 45.29134l-214.96062 0z" fill-rule="evenodd"/><path fill="#999999" d="m309.45087 51.130997l0 0c0 -0.63490677 0.5993042 -1.1496048 1.3385925 -1.1496048l0 0c0.73928833 0 1.3385925 0.514698 1.3385925 1.1496048l0 0c0 0.6349106 -0.5993042 1.1496086 -1.3385925 1.1496086l0 0c-0.73928833 0 -1.3385925 -0.514698 -1.3385925 -1.1496086z" fill-rule="evenodd"/><path stroke="#000000" stroke-width="1.0" stroke-linejoin="round" stroke-linecap="butt" d="m309.45087 51.130997l0 0c0 -0.63490677 0.5993042 -1.1496048 1.3385925 -1.1496048l0 0c0.73928833 0 1.3385925 0.514698 1.3385925 1.1496048l0 0c0 0.6349106 -0.5993042 1.1496086 -1.3385925 1.1496086l0 0c-0.73928833 0 -1.3385925 -0.514698 -1.3385925 -1.1496086z" fill-rule="evenodd"/><path fill="#999999" d="m313.24597 51.130997l0 0c0 -0.63490677 0.5993042 -1.1496048 1.3385925 -1.1496048l0 0c0.7392578 0 1.338562 0.514698 1.338562 1.1496048l0 0c0 0.6349106 -0.5993042 1.1496086 -1.338562 1.1496086l0 0c-0.73928833 0 -1.3385925 -0.514698 -1.3385925 -1.1496086z" fill-rule="evenodd"/><path stroke="#000000" stroke-width="1.0" stroke-linejoin="round" stroke-linecap="butt" d="m313.24597 51.130997l0 0c0 -0.63490677 0.5993042 -1.1496048 1.3385925 -1.1496048l0 0c0.7392578 0 1.338562 0.514698 1.338562 1.1496048l0 0c0 0.6349106 -0.5993042 1.1496086 -1.338562 1.1496086l0 0c-0.73928833 0 -1.3385925 -0.514698 -1.3385925 -1.1496086z" fill-rule="evenodd"/><path fill="#999999" d="m317.04105 51.130997l0 0c0 -0.63490677 0.5993042 -1.1496048 1.3385925 -1.1496048l0 0c0.73928833 0 1.3385925 0.514698 1.3385925 1.1496048l0 0c0 0.6349106 -0.5993042 1.1496086 -1.3385925 1.1496086l0 0c-0.73928833 0 -1.3385925 -0.514698 -1.3385925 -1.1496086z" fill-rule="evenodd"/><path stroke="#000000" stroke-width="1.0" stroke-linejoin="round" stroke-linecap="butt" d="m317.04105 51.130997l0 0c0 -0.63490677 0.5993042 -1.1496048 1.3385925 -1.1496048l0 0c0.73928833 0 1.3385925 0.514698 1.3385925 1.1496048l0 0c0 0.6349106 -0.5993042 1.1496086 -1.3385925 1.1496086l0 0c-0.73928833 0 -1.3385925 -0.514698 -1.3385925 -1.1496086z" fill-rule="evenodd"/><path fill="#000000" fill-opacity="0.0" d="m206.77165 106.729576l69.41731 0l0 45.29133l-69.41731 0z" fill-rule="evenodd"/><path stroke="#434343" stroke-width="1.0" stroke-linejoin="round" stroke-linecap="butt" stroke-dasharray="4.0,3.0" d="m206.77165 106.729576l69.41731 0l0 45.29133l-69.41731 0z" fill-rule="evenodd"/><path fill="#000000" fill-opacity="0.0" d="m278.87927 106.72957l70.74014 0l0 45.291336l-70.74014 0z" fill-rule="evenodd"/><path stroke="#434343" stroke-width="1.0" stroke-linejoin="round" stroke-linecap="butt" stroke-dasharray="4.0,3.0" d="m278.87927 106.72957l70.74014 0l0 45.291336l-70.74014 0z" fill-rule="evenodd"/><path fill="#000000" fill-opacity="0.0" d="m133.3412 106.67182l70.74016 0l0 45.291344l-70.74016 0z" fill-rule="evenodd"/><path stroke="#434343" stroke-width="1.0" stroke-linejoin="round" stroke-linecap="butt" stroke-dasharray="4.0,3.0" d="m133.3412 106.67182l70.74016 0l0 45.291344l-70.74016 0z" fill-rule="evenodd"/><path fill="#000000" fill-opacity="0.0" d="m133.3412 34.671917l70.74016 0l0 45.29134l-70.74016 0z" fill-rule="evenodd"/><path stroke="#434343" stroke-width="2.0" stroke-linejoin="round" stroke-linecap="butt" d="m133.3412 34.671917l70.74016 0l0 45.29134l-70.74016 0z" fill-rule="evenodd"/><path fill="#000000" fill-opacity="0.0" d="m314.25198 34.671917l0 -25.0l-145.54332 0l0 25.062992" fill-rule="evenodd"/><path stroke="#000000" stroke-width="1.0" stroke-linejoin="round" stroke-linecap="butt" d="m314.25198 34.671917l0 -25.0l-145.54332 0l0 21.635906" fill-rule="evenodd"/><path fill="#000000" stroke="#000000" stroke-width="1.0" stroke-linecap="butt" d="m168.70866 31.307821l-1.124588 -1.1245842l1.124588 3.0897694l1.124588 -3.0897694z" fill-rule="evenodd"/><path fill="#000000" fill-opacity="0.0" d="m459.7874 151.96317l0 12.506653l-72.75592 0l0 -12.443665" fill-rule="evenodd"/><path stroke="#000000" stroke-width="1.0" stroke-linejoin="round" stroke-linecap="butt" d="m459.7874 151.96317l0 12.506653l-72.75592 0l0 -9.016586" fill-rule="evenodd"/><path fill="#000000" stroke="#000000" stroke-width="1.0" stroke-linecap="butt" d="m387.0315 155.45325l1.1245728 1.1245728l-1.1245728 -3.0897675l-1.1245728 3.0897675z" fill-rule="evenodd"/><path fill="#999999" d="m217.23656 40.149162l20.125977 0l0 22.110233l-20.125977 0z" fill-rule="evenodd"/><path stroke="#000000" stroke-width="1.0" stroke-linejoin="round" stroke-linecap="butt" d="m217.23656 40.149162l20.125977 0l0 22.110233l-20.125977 0z" fill-rule="evenodd"/><path fill="#999999" d="m137.54102 40.003956l20.125977 0l0 22.110237l-20.125977 0z" fill-rule="evenodd"/><path stroke="#000000" stroke-width="1.0" stroke-linejoin="round" stroke-linecap="butt" d="m137.54102 40.003956l20.125977 0l0 22.110237l-20.125977 0z" fill-rule="evenodd"/><path fill="#000000" fill-opacity="0.0" d="m201.29659 5.1207347l90.96065 0l0 11.622047l-90.96065 0z" fill-rule="evenodd"/><path fill="#000000" d="m214.51534 16.702782l0 -3.234375q0 -0.609375 -0.28125 -0.90625q-0.28125 -0.296875 -0.875 -0.296875q-0.78125 0 -1.140625 0.4375q-0.359375 0.421875 -0.359375 1.390625l0 2.609375l-0.765625 0l0 -7.09375l0.765625 0l0 2.15625q0 0.375 -0.046875 0.640625l0.046875 0q0.234375 -0.359375 0.640625 -0.5625q0.40625 -0.21875 0.9375 -0.21875q0.921875 0 1.375 0.4375q0.453125 0.4375 0.453125 1.390625l0 3.25l-0.75 0zm1.5222015 -4.984375l0.796875 0l1.09375 2.84375q0.359375 0.96875 0.453125 1.40625l0.03125 0q0.0625 -0.234375 0.25 -0.796875q0.1875 -0.5625 1.234375 -3.453125l0.8125 0l-2.140625 5.671875q-0.3125 0.84375 -0.75 1.1875q-0.421875 0.359375 -1.046875 0.359375q-0.34375 0 -0.671875 -0.078125l0 -0.59375q0.25 0.046875 0.5625 0.046875q0.765625 0 1.109375 -0.875l0.265625 -0.703125l-2.0 -5.015625zm8.8880005 4.3125l-0.046875 0q-0.515625 0.765625 -1.5625 0.765625q-0.984375 0 -1.53125 -0.671875q-0.53125 -0.671875 -0.53125 -1.90625q0 -1.234375 0.53125 -1.90625q0.546875 -0.6875 1.53125 -0.6875q1.015625 0 1.5625 0.734375l0.046875 0l-0.03125 -0.359375l-0.015625 -0.359375l0 -2.03125l0.765625 0l0 7.09375l-0.625 0l-0.09375 -0.671875zm-1.515625 0.125q0.78125 0 1.125 -0.421875q0.34375 -0.421875 0.34375 -1.359375l0 -0.15625q0 -1.0625 -0.359375 -1.515625q-0.34375 -0.453125 -1.125 -0.453125q-0.65625 0 -1.015625 0.515625q-0.34375 0.515625 -0.34375 1.46875q0 0.953125 0.34375 1.4375q0.359375 0.484375 1.03125 0.484375zm6.106842 -4.53125q0.328125 0 0.59375 0.046875l-0.09375 0.703125q-0.3125 -0.0625 -0.546875 -0.0625q-0.609375 0 -1.046875 0.5q-0.421875 0.484375 -0.421875 1.21875l0 2.671875l-0.765625 0l0 -4.984375l0.625 0l0.09375 0.921875l0.03125 0q0.28125 -0.5 0.671875 -0.75q0.390625 -0.265625 0.859375 -0.265625zm4.604645 5.078125l-0.15625 -0.703125l-0.03125 0q-0.375 0.46875 -0.75 0.640625q-0.375 0.15625 -0.921875 0.15625q-0.75 0 -1.171875 -0.375q-0.421875 -0.390625 -0.421875 -1.09375q0 -1.515625 2.421875 -1.59375l0.84375 -0.03125l0 -0.296875q0 -0.59375 -0.25 -0.875q-0.25 -0.28125 -0.8125 -0.28125q-0.609375 0 -1.40625 0.390625l-0.234375 -0.578125q0.375 -0.203125 0.8125 -0.3125q0.4375 -0.125 0.875 -0.125q0.90625 0 1.328125 0.40625q0.4375 0.390625 0.4375 1.265625l0 3.40625l-0.5625 0zm-1.71875 -0.53125q0.71875 0 1.109375 -0.390625q0.40625 -0.390625 0.40625 -1.078125l0 -0.453125l-0.75 0.03125q-0.90625 0.03125 -1.3125 0.28125q-0.390625 0.25 -0.390625 0.765625q0 0.40625 0.25 0.625q0.25 0.21875 0.6875 0.21875zm3.7191162 0.046875q0 -0.296875 0.140625 -0.453125q0.140625 -0.171875 0.40625 -0.171875q0.265625 0 0.40625 0.171875q0.15625 0.15625 0.15625 0.453125q0 0.296875 -0.15625 0.453125q-0.15625 0.15625 -0.40625 0.15625q-0.234375 0 -0.390625 -0.140625q-0.15625 -0.140625 -0.15625 -0.46875zm0 -4.015625q0 -0.625 0.546875 -0.625q0.5625 0 0.5625 0.625q0 0.296875 -0.15625 0.453125q-0.15625 0.15625 -0.40625 0.15625q-0.234375 0 -0.390625 -0.140625q-0.15625 -0.140625 -0.15625 -0.46875zm4.9198456 4.59375q-0.484375 0 -0.890625 -0.171875q-0.40625 -0.1875 -0.671875 -0.5625l-0.0625 0q0.0625 0.4375 0.0625 0.828125l0 2.046875l-0.765625 0l0 -7.21875l0.625 0l0.09375 0.671875l0.046875 0q0.28125 -0.40625 0.671875 -0.578125q0.390625 -0.1875 0.890625 -0.1875q1.0 0 1.53125 0.6875q0.546875 0.671875 0.546875 1.890625q0 1.234375 -0.5625 1.921875q-0.546875 0.671875 -1.515625 0.671875zm-0.109375 -4.53125q-0.765625 0 -1.109375 0.421875q-0.34375 0.421875 -0.34375 1.34375l0 0.171875q0 1.046875 0.34375 1.5q0.359375 0.453125 1.125 0.453125q0.65625 0 1.015625 -0.515625q0.359375 -0.53125 0.359375 -1.453125q0 -0.921875 -0.359375 -1.421875q-0.359375 -0.5 -1.03125 -0.5zm5.778717 -0.640625q0.328125 0 0.59375 0.046875l-0.09375 0.703125q-0.3125 -0.0625 -0.546875 -0.0625q-0.609375 0 -1.046875 0.5q-0.421875 0.484375 -0.421875 1.21875l0 2.671875l-0.765625 0l0 -4.984375l0.625 0l0.09375 0.921875l0.03125 0q0.28125 -0.5 0.671875 -0.75q0.390625 -0.265625 0.859375 -0.265625zm3.6358948 5.171875q-1.109375 0 -1.75 -0.671875q-0.625 -0.671875 -0.625 -1.875q0 -1.203125 0.59375 -1.90625q0.59375 -0.71875 1.59375 -0.71875q0.9375 0 1.484375 0.625q0.546875 0.609375 0.546875 1.609375l0 0.484375l-3.4375 0q0.015625 0.875 0.4375 1.34375q0.421875 0.453125 1.1875 0.453125q0.8125 0 1.59375 -0.34375l0 0.671875q-0.40625 0.171875 -0.765625 0.25q-0.34375 0.078125 -0.859375 0.078125zm-0.203125 -4.546875q-0.59375 0 -0.953125 0.390625q-0.359375 0.390625 -0.421875 1.09375l2.609375 0q0 -0.71875 -0.328125 -1.09375q-0.3125 -0.390625 -0.90625 -0.390625zm4.4209137 4.453125l-1.890625 -4.984375l0.8125 0l1.078125 2.953125q0.359375 1.03125 0.421875 1.34375l0.03125 0q0.0625 -0.234375 0.328125 -0.984375q0.265625 -0.765625 1.1875 -3.3125l0.8125 0l-1.890625 4.984375l-0.890625 0zm4.3450623 0l-0.765625 0l0 -4.984375l0.765625 0l0 4.984375zm-0.828125 -6.34375q0 -0.265625 0.125 -0.375q0.140625 -0.125 0.328125 -0.125q0.171875 0 0.296875 0.125q0.140625 0.125 0.140625 0.375q0 0.25 -0.140625 0.375q-0.125 0.125 -0.296875 0.125q-0.1875 0 -0.328125 -0.125q-0.125 -0.125 -0.125 -0.375zm6.7343445 3.84375q0 1.21875 -0.625 1.90625q-0.609375 0.6875 -1.6875 0.6875q-0.671875 0 -1.1875 -0.3125q-0.515625 -0.3125 -0.796875 -0.90625q-0.28125 -0.59375 -0.28125 -1.375q0 -1.21875 0.609375 -1.890625q0.609375 -0.6875 1.6875 -0.6875q1.046875 0 1.65625 0.703125q0.625 0.6875 0.625 1.875zm-3.796875 0q0 0.953125 0.375 1.453125q0.390625 0.5 1.125 0.5q0.75 0 1.125 -0.5q0.390625 -0.5 0.390625 -1.453125q0 -0.953125 -0.390625 -1.4375q-0.375 -0.5 -1.125 -0.5q-0.75 0 -1.125 0.484375q-0.375 0.484375 -0.375 1.453125zm5.837372 -2.484375l0 3.234375q0 0.609375 0.265625 0.90625q0.28125 0.296875 0.875 0.296875q0.78125 0 1.140625 -0.421875q0.375 -0.421875 0.375 -1.40625l0 -2.609375l0.75 0l0 4.984375l-0.625 0l-0.109375 -0.671875l-0.03125 0q-0.234375 0.375 -0.65625 0.578125q-0.40625 0.1875 -0.9375 0.1875q-0.90625 0 -1.359375 -0.4375q-0.453125 -0.4375 -0.453125 -1.375l0 -3.265625l0.765625 0zm8.225311 3.625q0 0.6875 -0.515625 1.078125q-0.515625 0.375 -1.453125 0.375q-1.0 0 -1.546875 -0.3125l0 -0.703125q0.359375 0.171875 0.765625 0.28125q0.421875 0.109375 0.796875 0.109375q0.59375 0 0.90625 -0.1875q0.328125 -0.1875 0.328125 -0.578125q0 -0.296875 -0.265625 -0.5q-0.25 -0.203125 -0.984375 -0.484375q-0.6875 -0.265625 -0.984375 -0.453125q-0.296875 -0.203125 -0.4375 -0.4375q-0.140625 -0.25 -0.140625 -0.59375q0 -0.609375 0.484375 -0.953125q0.5 -0.359375 1.375 -0.359375q0.796875 0 1.578125 0.328125l-0.28125 0.609375q-0.75 -0.3125 -1.359375 -0.3125q-0.53125 0 -0.8125 0.171875q-0.265625 0.171875 -0.265625 0.46875q0 0.203125 0.09375 0.34375q0.109375 0.140625 0.328125 0.265625q0.234375 0.125 0.890625 0.359375q0.875 0.328125 1.1875 0.65625q0.3125 0.328125 0.3125 0.828125z" fill-rule="nonzero"/><path fill="#000000" fill-opacity="0.0" d="m381.45145 164.45407l90.96063 0l0 8.692917l-90.96063 0z" fill-rule="evenodd"/><path fill="#000000" d="m394.6702 173.10698l0 -3.234375q0 -0.609375 -0.28125 -0.90625q-0.28125 -0.296875 -0.875 -0.296875q-0.78125 0 -1.140625 0.4375q-0.359375 0.421875 -0.359375 1.390625l0 2.609375l-0.765625 0l0 -7.09375l0.765625 0l0 2.15625q0 0.375 -0.046875 0.640625l0.046875 0q0.234375 -0.359375 0.640625 -0.5625q0.40625 -0.21875 0.9375 -0.21875q0.921875 0 1.375 0.4375q0.453125 0.4375 0.453125 1.390625l0 3.25l-0.75 0zm1.5221863 -4.984375l0.796875 0l1.09375 2.84375q0.359375 0.96875 0.453125 1.40625l0.03125 0q0.0625 -0.234375 0.25 -0.796875q0.1875 -0.5625 1.234375 -3.453125l0.8125 0l-2.140625 5.671875q-0.3125 0.84375 -0.75 1.1875q-0.421875 0.359375 -1.046875 0.359375q-0.34375 0 -0.671875 -0.078125l0 -0.59375q0.25 0.046875 0.5625 0.046875q0.765625 0 1.109375 -0.875l0.265625 -0.703125l-2.0 -5.015625zm8.8880005 4.3125l-0.046875 0q-0.515625 0.765625 -1.5625 0.765625q-0.984375 0 -1.53125 -0.671875q-0.53125 -0.671875 -0.53125 -1.90625q0 -1.234375 0.53125 -1.90625q0.546875 -0.6875 1.53125 -0.6875q1.015625 0 1.5625 0.734375l0.046875 0l-0.03125 -0.359375l-0.015625 -0.359375l0 -2.03125l0.765625 0l0 7.09375l-0.625 0l-0.09375 -0.671875zm-1.515625 0.125q0.78125 0 1.125 -0.421875q0.34375 -0.421875 0.34375 -1.359375l0 -0.15625q0 -1.0625 -0.359375 -1.515625q-0.34375 -0.453125 -1.125 -0.453125q-0.65625 0 -1.015625 0.515625q-0.34375 0.515625 -0.34375 1.46875q0 0.953125 0.34375 1.4375q0.359375 0.484375 1.03125 0.484375zm6.106842 -4.53125q0.328125 0 0.59375 0.046875l-0.09375 0.703125q-0.3125 -0.0625 -0.546875 -0.0625q-0.609375 0 -1.046875 0.5q-0.421875 0.484375 -0.421875 1.21875l0 2.671875l-0.765625 0l0 -4.984375l0.625 0l0.09375 0.921875l0.03125 0q0.28125 -0.5 0.671875 -0.75q0.390625 -0.265625 0.859375 -0.265625zm4.604645 5.078125l-0.15625 -0.703125l-0.03125 0q-0.375 0.46875 -0.75 0.640625q-0.375 0.15625 -0.921875 0.15625q-0.75 0 -1.171875 -0.375q-0.421875 -0.390625 -0.421875 -1.09375q0 -1.515625 2.421875 -1.59375l0.84375 -0.03125l0 -0.296875q0 -0.59375 -0.25 -0.875q-0.25 -0.28125 -0.8125 -0.28125q-0.609375 0 -1.40625 0.390625l-0.234375 -0.578125q0.375 -0.203125 0.8125 -0.3125q0.4375 -0.125 0.875 -0.125q0.90625 0 1.328125 0.40625q0.4375 0.390625 0.4375 1.265625l0 3.40625l-0.5625 0zm-1.71875 -0.53125q0.71875 0 1.109375 -0.390625q0.40625 -0.390625 0.40625 -1.078125l0 -0.453125l-0.75 0.03125q-0.90625 0.03125 -1.3125 0.28125q-0.390625 0.25 -0.390625 0.765625q0 0.40625 0.25 0.625q0.25 0.21875 0.6875 0.21875zm3.7191162 0.046875q0 -0.296875 0.140625 -0.453125q0.140625 -0.171875 0.40625 -0.171875q0.265625 0 0.40625 0.171875q0.15625 0.15625 0.15625 0.453125q0 0.296875 -0.15625 0.453125q-0.15625 0.15625 -0.40625 0.15625q-0.234375 0 -0.390625 -0.140625q-0.15625 -0.140625 -0.15625 -0.46875zm0 -4.015625q0 -0.625 0.546875 -0.625q0.5625 0 0.5625 0.625q0 0.296875 -0.15625 0.453125q-0.15625 0.15625 -0.40625 0.15625q-0.234375 0 -0.390625 -0.140625q-0.15625 -0.140625 -0.15625 -0.46875zm4.919861 4.59375q-0.484375 0 -0.890625 -0.171875q-0.40625 -0.1875 -0.671875 -0.5625l-0.0625 0q0.0625 0.4375 0.0625 0.828125l0 2.046875l-0.765625 0l0 -7.21875l0.625 0l0.09375 0.671875l0.046875 0q0.28125 -0.40625 0.671875 -0.578125q0.390625 -0.1875 0.890625 -0.1875q1.0 0 1.53125 0.6875q0.546875 0.671875 0.546875 1.890625q0 1.234375 -0.5625 1.921875q-0.546875 0.671875 -1.515625 0.671875zm-0.109375 -4.53125q-0.765625 0 -1.109375 0.421875q-0.34375 0.421875 -0.34375 1.34375l0 0.171875q0 1.046875 0.34375 1.5q0.359375 0.453125 1.125 0.453125q0.65625 0 1.015625 -0.515625q0.359375 -0.53125 0.359375 -1.453125q0 -0.921875 -0.359375 -1.421875q-0.359375 -0.5 -1.03125 -0.5zm5.778717 -0.640625q0.328125 0 0.59375 0.046875l-0.09375 0.703125q-0.3125 -0.0625 -0.546875 -0.0625q-0.609375 0 -1.046875 0.5q-0.421875 0.484375 -0.421875 1.21875l0 2.671875l-0.765625 0l0 -4.984375l0.625 0l0.09375 0.921875l0.03125 0q0.28125 -0.5 0.671875 -0.75q0.390625 -0.265625 0.859375 -0.265625zm3.6358948 5.171875q-1.109375 0 -1.75 -0.671875q-0.625 -0.671875 -0.625 -1.875q0 -1.203125 0.59375 -1.90625q0.59375 -0.71875 1.59375 -0.71875q0.9375 0 1.484375 0.625q0.546875 0.609375 0.546875 1.609375l0 0.484375l-3.4375 0q0.015625 0.875 0.4375 1.34375q0.421875 0.453125 1.1875 0.453125q0.8125 0 1.59375 -0.34375l0 0.671875q-0.40625 0.171875 -0.765625 0.25q-0.34375 0.078125 -0.859375 0.078125zm-0.203125 -4.546875q-0.59375 0 -0.953125 0.390625q-0.359375 0.390625 -0.421875 1.09375l2.609375 0q0 -0.71875 -0.328125 -1.09375q-0.3125 -0.390625 -0.90625 -0.390625zm4.4208984 4.453125l-1.890625 -4.984375l0.8125 0l1.078125 2.953125q0.359375 1.03125 0.421875 1.34375l0.03125 0q0.0625 -0.234375 0.328125 -0.984375q0.265625 -0.765625 1.1875 -3.3125l0.8125 0l-1.890625 4.984375l-0.890625 0zm4.3450623 0l-0.765625 0l0 -4.984375l0.765625 0l0 4.984375zm-0.828125 -6.34375q0 -0.265625 0.125 -0.375q0.140625 -0.125 0.328125 -0.125q0.171875 0 0.296875 0.125q0.140625 0.125 0.140625 0.375q0 0.25 -0.140625 0.375q-0.125 0.125 -0.296875 0.125q-0.1875 0 -0.328125 -0.125q-0.125 -0.125 -0.125 -0.375zm6.7343445 3.84375q0 1.21875 -0.625 1.90625q-0.609375 0.6875 -1.6875 0.6875q-0.671875 0 -1.1875 -0.3125q-0.515625 -0.3125 -0.796875 -0.90625q-0.28125 -0.59375 -0.28125 -1.375q0 -1.21875 0.609375 -1.890625q0.609375 -0.6875 1.6875 -0.6875q1.046875 0 1.65625 0.703125q0.625 0.6875 0.625 1.875zm-3.796875 0q0 0.953125 0.375 1.453125q0.390625 0.5 1.125 0.5q0.75 0 1.125 -0.5q0.390625 -0.5 0.390625 -1.453125q0 -0.953125 -0.390625 -1.4375q-0.375 -0.5 -1.125 -0.5q-0.75 0 -1.125 0.484375q-0.375 0.484375 -0.375 1.453125zm5.837372 -2.484375l0 3.234375q0 0.609375 0.265625 0.90625q0.28125 0.296875 0.875 0.296875q0.78125 0 1.140625 -0.421875q0.375 -0.421875 0.375 -1.40625l0 -2.609375l0.75 0l0 4.984375l-0.625 0l-0.109375 -0.671875l-0.03125 0q-0.234375 0.375 -0.65625 0.578125q-0.40625 0.1875 -0.9375 0.1875q-0.90625 0 -1.359375 -0.4375q-0.453125 -0.4375 -0.453125 -1.375l0 -3.265625l0.765625 0zm8.225311 3.625q0 0.6875 -0.515625 1.078125q-0.515625 0.375 -1.453125 0.375q-1.0 0 -1.546875 -0.3125l0 -0.703125q0.359375 0.171875 0.765625 0.28125q0.421875 0.109375 0.796875 0.109375q0.59375 0 0.90625 -0.1875q0.328125 -0.1875 0.328125 -0.578125q0 -0.296875 -0.265625 -0.5q-0.25 -0.203125 -0.984375 -0.484375q-0.6875 -0.265625 -0.984375 -0.453125q-0.296875 -0.203125 -0.4375 -0.4375q-0.140625 -0.25 -0.140625 -0.59375q0 -0.609375 0.484375 -0.953125q0.5 -0.359375 1.375 -0.359375q0.796875 0 1.578125 0.328125l-0.28125 0.609375q-0.75 -0.3125 -1.359375 -0.3125q-0.53125 0 -0.8125 0.171875q-0.265625 0.171875 -0.265625 0.46875q0 0.203125 0.09375 0.34375q0.109375 0.140625 0.328125 0.265625q0.234375 0.125 0.890625 0.359375q0.875 0.328125 1.1875 0.65625q0.3125 0.328125 0.3125 0.828125z" fill-rule="nonzero"/><path fill="#000000" fill-opacity="0.0" d="m464.13123 164.45407l90.96063 0l0 8.692917l-90.96063 0z" fill-rule="evenodd"/><path fill="#000000" d="m477.34998 173.10698l0 -3.234375q0 -0.609375 -0.28125 -0.90625q-0.28125 -0.296875 -0.875 -0.296875q-0.78125 0 -1.140625 0.4375q-0.359375 0.421875 -0.359375 1.390625l0 2.609375l-0.765625 0l0 -7.09375l0.765625 0l0 2.15625q0 0.375 -0.046875 0.640625l0.046875 0q0.234375 -0.359375 0.640625 -0.5625q0.40625 -0.21875 0.9375 -0.21875q0.921875 0 1.375 0.4375q0.453125 0.4375 0.453125 1.390625l0 3.25l-0.75 0zm1.5222168 -4.984375l0.796875 0l1.09375 2.84375q0.359375 0.96875 0.453125 1.40625l0.03125 0q0.0625 -0.234375 0.25 -0.796875q0.1875 -0.5625 1.234375 -3.453125l0.8125 0l-2.140625 5.671875q-0.3125 0.84375 -0.75 1.1875q-0.421875 0.359375 -1.046875 0.359375q-0.34375 0 -0.671875 -0.078125l0 -0.59375q0.25 0.046875 0.5625 0.046875q0.765625 0 1.109375 -0.875l0.265625 -0.703125l-2.0 -5.015625zm8.8880005 4.3125l-0.046875 0q-0.515625 0.765625 -1.5625 0.765625q-0.984375 0 -1.53125 -0.671875q-0.53125 -0.671875 -0.53125 -1.90625q0 -1.234375 0.53125 -1.90625q0.546875 -0.6875 1.53125 -0.6875q1.015625 0 1.5625 0.734375l0.046875 0l-0.03125 -0.359375l-0.015625 -0.359375l0 -2.03125l0.765625 0l0 7.09375l-0.625 0l-0.09375 -0.671875zm-1.515625 0.125q0.78125 0 1.125 -0.421875q0.34375 -0.421875 0.34375 -1.359375l0 -0.15625q0 -1.0625 -0.359375 -1.515625q-0.34375 -0.453125 -1.125 -0.453125q-0.65625 0 -1.015625 0.515625q-0.34375 0.515625 -0.34375 1.46875q0 0.953125 0.34375 1.4375q0.359375 0.484375 1.03125 0.484375zm6.106842 -4.53125q0.328125 0 0.59375 0.046875l-0.09375 0.703125q-0.3125 -0.0625 -0.546875 -0.0625q-0.609375 0 -1.046875 0.5q-0.421875 0.484375 -0.421875 1.21875l0 2.671875l-0.765625 0l0 -4.984375l0.625 0l0.09375 0.921875l0.03125 0q0.28125 -0.5 0.671875 -0.75q0.390625 -0.265625 0.859375 -0.265625zm4.604645 5.078125l-0.15625 -0.703125l-0.03125 0q-0.375 0.46875 -0.75 0.640625q-0.375 0.15625 -0.921875 0.15625q-0.75 0 -1.171875 -0.375q-0.421875 -0.390625 -0.421875 -1.09375q0 -1.515625 2.421875 -1.59375l0.84375 -0.03125l0 -0.296875q0 -0.59375 -0.25 -0.875q-0.25 -0.28125 -0.8125 -0.28125q-0.609375 0 -1.40625 0.390625l-0.234375 -0.578125q0.375 -0.203125 0.8125 -0.3125q0.4375 -0.125 0.875 -0.125q0.90625 0 1.328125 0.40625q0.4375 0.390625 0.4375 1.265625l0 3.40625l-0.5625 0zm-1.71875 -0.53125q0.71875 0 1.109375 -0.390625q0.40625 -0.390625 0.40625 -1.078125l0 -0.453125l-0.75 0.03125q-0.90625 0.03125 -1.3125 0.28125q-0.390625 0.25 -0.390625 0.765625q0 0.40625 0.25 0.625q0.25 0.21875 0.6875 0.21875zm3.7191162 0.046875q0 -0.296875 0.140625 -0.453125q0.140625 -0.171875 0.40625 -0.171875q0.265625 0 0.40625 0.171875q0.15625 0.15625 0.15625 0.453125q0 0.296875 -0.15625 0.453125q-0.15625 0.15625 -0.40625 0.15625q-0.234375 0 -0.390625 -0.140625q-0.15625 -0.140625 -0.15625 -0.46875zm0 -4.015625q0 -0.625 0.546875 -0.625q0.5625 0 0.5625 0.625q0 0.296875 -0.15625 0.453125q-0.15625 0.15625 -0.40625 0.15625q-0.234375 0 -0.390625 -0.140625q-0.15625 -0.140625 -0.15625 -0.46875zm4.9198303 4.59375q-0.484375 0 -0.890625 -0.171875q-0.40625 -0.1875 -0.671875 -0.5625l-0.0625 0q0.0625 0.4375 0.0625 0.828125l0 2.046875l-0.765625 0l0 -7.21875l0.625 0l0.09375 0.671875l0.046875 0q0.28125 -0.40625 0.671875 -0.578125q0.390625 -0.1875 0.890625 -0.1875q1.0 0 1.53125 0.6875q0.546875 0.671875 0.546875 1.890625q0 1.234375 -0.5625 1.921875q-0.546875 0.671875 -1.515625 0.671875zm-0.109375 -4.53125q-0.765625 0 -1.109375 0.421875q-0.34375 0.421875 -0.34375 1.34375l0 0.171875q0 1.046875 0.34375 1.5q0.359375 0.453125 1.125 0.453125q0.65625 0 1.015625 -0.515625q0.359375 -0.53125 0.359375 -1.453125q0 -0.921875 -0.359375 -1.421875q-0.359375 -0.5 -1.03125 -0.5zm5.778717 -0.640625q0.328125 0 0.59375 0.046875l-0.09375 0.703125q-0.3125 -0.0625 -0.546875 -0.0625q-0.609375 0 -1.046875 0.5q-0.421875 0.484375 -0.421875 1.21875l0 2.671875l-0.765625 0l0 -4.984375l0.625 0l0.09375 0.921875l0.03125 0q0.28125 -0.5 0.671875 -0.75q0.390625 -0.265625 0.859375 -0.265625zm3.6359253 5.171875q-1.109375 0 -1.7500305 -0.671875q-0.625 -0.671875 -0.625 -1.875q0 -1.203125 0.59375 -1.90625q0.59375 -0.71875 1.5937805 -0.71875q0.9375 0 1.484375 0.625q0.546875 0.609375 0.546875 1.609375l0 0.484375l-3.4375305 0q0.015625 0.875 0.43753052 1.34375q0.421875 0.453125 1.1875 0.453125q0.8125 0 1.59375 -0.34375l0 0.671875q-0.40625 0.171875 -0.765625 0.25q-0.34375 0.078125 -0.859375 0.078125zm-0.203125 -4.546875q-0.59375 0 -0.953125 0.390625q-0.35940552 0.390625 -0.42190552 1.09375l2.6094055 0q0 -0.71875 -0.328125 -1.09375q-0.3125 -0.390625 -0.90625 -0.390625zm4.4208984 4.453125l-1.890625 -4.984375l0.8125 0l1.078125 2.953125q0.359375 1.03125 0.421875 1.34375l0.03125 0q0.0625 -0.234375 0.328125 -0.984375q0.265625 -0.765625 1.1875 -3.3125l0.8125 0l-1.890625 4.984375l-0.890625 0zm4.3450317 0l-0.765625 0l0 -4.984375l0.765625 0l0 4.984375zm-0.828125 -6.34375q0 -0.265625 0.125 -0.375q0.140625 -0.125 0.328125 -0.125q0.171875 0 0.296875 0.125q0.140625 0.125 0.140625 0.375q0 0.25 -0.140625 0.375q-0.125 0.125 -0.296875 0.125q-0.1875 0 -0.328125 -0.125q-0.125 -0.125 -0.125 -0.375zm6.734375 3.84375q0 1.21875 -0.625 1.90625q-0.609375 0.6875 -1.6875 0.6875q-0.671875 0 -1.1875 -0.3125q-0.515625 -0.3125 -0.796875 -0.90625q-0.28125 -0.59375 -0.28125 -1.375q0 -1.21875 0.609375 -1.890625q0.609375 -0.6875 1.6875 -0.6875q1.046875 0 1.65625 0.703125q0.625 0.6875 0.625 1.875zm-3.796875 0q0 0.953125 0.375 1.453125q0.390625 0.5 1.125 0.5q0.75 0 1.125 -0.5q0.390625 -0.5 0.390625 -1.453125q0 -0.953125 -0.390625 -1.4375q-0.375 -0.5 -1.125 -0.5q-0.75 0 -1.125 0.484375q-0.375 0.484375 -0.375 1.453125zm5.8373413 -2.484375l0 3.234375q0 0.609375 0.265625 0.90625q0.28125 0.296875 0.875 0.296875q0.78125 0 1.140625 -0.421875q0.375 -0.421875 0.375 -1.40625l0 -2.609375l0.75 0l0 4.984375l-0.625 0l-0.109375 -0.671875l-0.03125 0q-0.234375 0.375 -0.65625 0.578125q-0.40625 0.1875 -0.9375 0.1875q-0.90625 0 -1.359375 -0.4375q-0.453125 -0.4375 -0.453125 -1.375l0 -3.265625l0.765625 0zm8.225342 3.625q0 0.6875 -0.515625 1.078125q-0.515625 0.375 -1.453125 0.375q-1.0 0 -1.546875 -0.3125l0 -0.703125q0.359375 0.171875 0.765625 0.28125q0.421875 0.109375 0.796875 0.109375q0.59375 0 0.90625 -0.1875q0.328125 -0.1875 0.328125 -0.578125q0 -0.296875 -0.265625 -0.5q-0.25 -0.203125 -0.984375 -0.484375q-0.6875 -0.265625 -0.984375 -0.453125q-0.296875 -0.203125 -0.4375 -0.4375q-0.140625 -0.25 -0.140625 -0.59375q0 -0.609375 0.484375 -0.953125q0.5 -0.359375 1.375 -0.359375q0.796875 0 1.578125 0.328125l-0.28125 0.609375q-0.75 -0.3125 -1.359375 -0.3125q-0.53125 0 -0.8125 0.171875q-0.265625 0.171875 -0.265625 0.46875q0 0.203125 0.09375 0.34375q0.109375 0.140625 0.328125 0.265625q0.234375 0.125 0.890625 0.359375q0.875 0.328125 1.1875 0.65625q0.3125 0.328125 0.3125 0.828125z" fill-rule="nonzero"/><path fill="#000000" fill-opacity="0.0" d="m444.44357 78.55643l90.9606 0l0 11.622047l-90.9606 0z" fill-rule="evenodd"/><path fill="#000000" d="m457.66232 90.13847l0 -3.234375q0 -0.609375 -0.28125 -0.90625q-0.28125 -0.296875 -0.875 -0.296875q-0.78125 0 -1.140625 0.4375q-0.359375 0.421875 -0.359375 1.390625l0 2.609375l-0.765625 0l0 -7.09375l0.765625 0l0 2.15625q0 0.375 -0.046875 0.640625l0.046875 0q0.234375 -0.359375 0.640625 -0.5625q0.40625 -0.21875 0.9375 -0.21875q0.921875 0 1.375 0.4375q0.453125 0.4375 0.453125 1.390625l0 3.25l-0.75 0zm1.5221863 -4.984375l0.796875 0l1.09375 2.84375q0.359375 0.96875 0.453125 1.40625l0.03125 0q0.0625 -0.234375 0.25 -0.796875q0.1875 -0.5625 1.234375 -3.453125l0.8125 0l-2.140625 5.671875q-0.3125 0.84375 -0.75 1.1875q-0.421875 0.359375 -1.046875 0.359375q-0.34375 0 -0.671875 -0.078125l0 -0.59375q0.25 0.046875 0.5625 0.046875q0.765625 0 1.109375 -0.875l0.265625 -0.703125l-2.0 -5.015625zm8.8880005 4.3125l-0.046875 0q-0.515625 0.765625 -1.5625 0.765625q-0.984375 0 -1.53125 -0.671875q-0.53125 -0.671875 -0.53125 -1.90625q0 -1.234375 0.53125 -1.90625q0.546875 -0.6875 1.53125 -0.6875q1.015625 0 1.5625 0.734375l0.046875 0l-0.03125 -0.359375l-0.015625 -0.359375l0 -2.03125l0.765625 0l0 7.09375l-0.625 0l-0.09375 -0.671875zm-1.515625 0.125q0.78125 0 1.125 -0.421875q0.34375 -0.421875 0.34375 -1.359375l0 -0.15625q0 -1.0625 -0.359375 -1.515625q-0.34375 -0.453125 -1.125 -0.453125q-0.65625 0 -1.015625 0.515625q-0.34375 0.515625 -0.34375 1.46875q0 0.953125 0.34375 1.4375q0.359375 0.484375 1.03125 0.484375zm6.106842 -4.53125q0.328125 0 0.59375 0.046875l-0.09375 0.703125q-0.3125 -0.0625 -0.546875 -0.0625q-0.609375 0 -1.046875 0.5q-0.421875 0.484375 -0.421875 1.21875l0 2.671875l-0.765625 0l0 -4.984375l0.625 0l0.09375 0.921875l0.03125 0q0.28125 -0.5 0.671875 -0.75q0.390625 -0.265625 0.859375 -0.265625zm4.604645 5.078125l-0.15625 -0.703125l-0.03125 0q-0.375 0.46875 -0.75 0.640625q-0.375 0.15625 -0.921875 0.15625q-0.75 0 -1.171875 -0.375q-0.421875 -0.390625 -0.421875 -1.09375q0 -1.515625 2.421875 -1.59375l0.84375 -0.03125l0 -0.296875q0 -0.59375 -0.25 -0.875q-0.25 -0.28125 -0.8125 -0.28125q-0.609375 0 -1.40625 0.390625l-0.234375 -0.578125q0.375 -0.203125 0.8125 -0.3125q0.4375 -0.125 0.875 -0.125q0.90625 0 1.328125 0.40625q0.4375 0.390625 0.4375 1.265625l0 3.40625l-0.5625 0zm-1.71875 -0.53125q0.71875 0 1.109375 -0.390625q0.40625 -0.390625 0.40625 -1.078125l0 -0.453125l-0.75 0.03125q-0.90625 0.03125 -1.3125 0.28125q-0.390625 0.25 -0.390625 0.765625q0 0.40625 0.25 0.625q0.25 0.21875 0.6875 0.21875zm3.7191162 0.046875q0 -0.296875 0.140625 -0.453125q0.140625 -0.171875 0.40625 -0.171875q0.265625 0 0.40625 0.171875q0.15625 0.15625 0.15625 0.453125q0 0.296875 -0.15625 0.453125q-0.15625 0.15625 -0.40625 0.15625q-0.234375 0 -0.390625 -0.140625q-0.15625 -0.140625 -0.15625 -0.46875zm0 -4.015625q0 -0.625 0.546875 -0.625q0.5625 0 0.5625 0.625q0 0.296875 -0.15625 0.453125q-0.15625 0.15625 -0.40625 0.15625q-0.234375 0 -0.390625 -0.140625q-0.15625 -0.140625 -0.15625 -0.46875zm4.919861 4.59375q-0.484375 0 -0.890625 -0.171875q-0.40625 -0.1875 -0.671875 -0.5625l-0.0625 0q0.0625 0.4375 0.0625 0.828125l0 2.046875l-0.765625 0l0 -7.21875l0.625 0l0.09375 0.671875l0.046875 0q0.28125 -0.40625 0.671875 -0.578125q0.390625 -0.1875 0.890625 -0.1875q1.0 0 1.53125 0.6875q0.546875 0.671875 0.546875 1.890625q0 1.234375 -0.5625 1.921875q-0.546875 0.671875 -1.515625 0.671875zm-0.109375 -4.53125q-0.765625 0 -1.109375 0.421875q-0.34375 0.421875 -0.34375 1.34375l0 0.171875q0 1.046875 0.34375 1.5q0.359375 0.453125 1.125 0.453125q0.65625 0 1.015625 -0.515625q0.359375 -0.53125 0.359375 -1.453125q0 -0.921875 -0.359375 -1.421875q-0.359375 -0.5 -1.03125 -0.5zm5.778717 -0.640625q0.328125 0 0.59375 0.046875l-0.09375 0.703125q-0.3125 -0.0625 -0.546875 -0.0625q-0.609375 0 -1.046875 0.5q-0.421875 0.484375 -0.421875 1.21875l0 2.671875l-0.765625 0l0 -4.984375l0.625 0l0.09375 0.921875l0.03125 0q0.28125 -0.5 0.671875 -0.75q0.390625 -0.265625 0.859375 -0.265625zm3.6358948 5.171875q-1.109375 0 -1.75 -0.671875q-0.625 -0.671875 -0.625 -1.875q0 -1.203125 0.59375 -1.90625q0.59375 -0.71875 1.59375 -0.71875q0.9375 0 1.484375 0.625q0.546875 0.609375 0.546875 1.609375l0 0.484375l-3.4375 0q0.015625 0.875 0.4375 1.34375q0.421875 0.453125 1.1875 0.453125q0.8125 0 1.59375 -0.34375l0 0.671875q-0.40625 0.171875 -0.765625 0.25q-0.34375 0.078125 -0.859375 0.078125zm-0.203125 -4.546875q-0.59375 0 -0.953125 0.390625q-0.359375 0.390625 -0.421875 1.09375l2.609375 0q0 -0.71875 -0.328125 -1.09375q-0.3125 -0.390625 -0.90625 -0.390625zm4.4208984 4.453125l-1.890625 -4.984375l0.8125 0l1.078125 2.953125q0.359375 1.03125 0.421875 1.34375l0.03125 0q0.0625 -0.234375 0.328125 -0.984375q0.265625 -0.765625 1.1875 -3.3125l0.8125 0l-1.890625 4.984375l-0.890625 0zm4.3450623 0l-0.765625 0l0 -4.984375l0.765625 0l0 4.984375zm-0.828125 -6.34375q0 -0.265625 0.125 -0.375q0.140625 -0.125 0.328125 -0.125q0.171875 0 0.296875 0.125q0.140625 0.125 0.140625 0.375q0 0.25 -0.140625 0.375q-0.125 0.125 -0.296875 0.125q-0.1875 0 -0.328125 -0.125q-0.125 -0.125 -0.125 -0.375zm6.7343445 3.84375q0 1.21875 -0.625 1.90625q-0.609375 0.6875 -1.6875 0.6875q-0.671875 0 -1.1875 -0.3125q-0.515625 -0.3125 -0.796875 -0.90625q-0.28125 -0.59375 -0.28125 -1.375q0 -1.21875 0.609375 -1.890625q0.609375 -0.6875 1.6875 -0.6875q1.046875 0 1.65625 0.703125q0.625 0.6875 0.625 1.875zm-3.796875 0q0 0.953125 0.375 1.453125q0.390625 0.5 1.125 0.5q0.75 0 1.125 -0.5q0.390625 -0.5 0.390625 -1.453125q0 -0.953125 -0.390625 -1.4375q-0.375 -0.5 -1.125 -0.5q-0.75 0 -1.125 0.484375q-0.375 0.484375 -0.375 1.453125zm5.837372 -2.484375l0 3.234375q0 0.609375 0.265625 0.90625q0.28125 0.296875 0.875 0.296875q0.78125 0 1.1405945 -0.421875q0.375 -0.421875 0.375 -1.40625l0 -2.609375l0.75 0l0 4.984375l-0.625 0l-0.109375 -0.671875l-0.03125 0q-0.234375 0.375 -0.6562195 0.578125q-0.40625 0.1875 -0.9375 0.1875q-0.90625 0 -1.359375 -0.4375q-0.453125 -0.4375 -0.453125 -1.375l0 -3.265625l0.765625 0zm8.225311 3.625q0 0.6875 -0.515625 1.078125q-0.515625 0.375 -1.453125 0.375q-1.0 0 -1.546875 -0.3125l0 -0.703125q0.359375 0.171875 0.765625 0.28125q0.421875 0.109375 0.796875 0.109375q0.59375 0 0.90625 -0.1875q0.328125 -0.1875 0.328125 -0.578125q0 -0.296875 -0.265625 -0.5q-0.25 -0.203125 -0.984375 -0.484375q-0.6875 -0.265625 -0.984375 -0.453125q-0.296875 -0.203125 -0.4375 -0.4375q-0.140625 -0.25 -0.140625 -0.59375q0 -0.609375 0.484375 -0.953125q0.5 -0.359375 1.375 -0.359375q0.796875 0 1.578125 0.328125l-0.28125 0.609375q-0.75 -0.3125 -1.359375 -0.3125q-0.53125 0 -0.8125 0.171875q-0.265625 0.171875 -0.265625 0.46875q0 0.203125 0.09375 0.34375q0.109375 0.140625 0.328125 0.265625q0.234375 0.125 0.890625 0.359375q0.875 0.328125 1.1875 0.65625q0.3125 0.328125 0.3125 0.828125z" fill-rule="nonzero"/><path fill="#000000" fill-opacity="0.0" d="m-3.2099738 39.622047l136.44095 0l0 26.740158l-136.44095 0z" fill-rule="evenodd"/><path fill="#000000" d="m14.696277 56.578297q0 2.34375 -1.28125 3.59375q-1.28125 1.25 -3.6875 1.25l-2.6250005 0l0 -9.515625l2.9062505 0q2.21875 0 3.453125 1.234375q1.234375 1.234375 1.234375 3.4375zm-1.171875 0.03125q0 -1.859375 -0.9375 -2.796875q-0.9375 -0.953125 -2.78125 -0.953125l-1.59375 0l0 7.609375l1.34375 0q1.96875 0 2.96875 -0.96875q1.0 -0.984375 1.0 -2.890625zm4.200637 4.8125l-1.078125 0l0 -7.125l1.078125 0l0 7.125zm-1.171875 -9.0625q0 -0.375 0.1875 -0.546875q0.1875 -0.171875 0.453125 -0.171875q0.265625 0 0.453125 0.171875q0.1875 0.171875 0.1875 0.546875q0 0.359375 -0.1875 0.546875q-0.1875 0.171875 -0.453125 0.171875q-0.265625 0 -0.453125 -0.171875q-0.1875 -0.1875 -0.1875 -0.546875zm8.0742035 7.109375q0 1.0 -0.75 1.546875q-0.734375 0.53125 -2.078125 0.53125q-1.421875 0 -2.21875 -0.4375l0 -1.015625q0.515625 0.265625 1.109375 0.421875q0.59375 0.140625 1.140625 0.140625q0.84375 0 1.296875 -0.265625q0.453125 -0.265625 0.453125 -0.828125q0 -0.40625 -0.359375 -0.703125q-0.359375 -0.296875 -1.40625 -0.703125q-1.0 -0.375 -1.421875 -0.640625q-0.421875 -0.28125 -0.625 -0.625q-0.203125 -0.359375 -0.203125 -0.84375q0 -0.875 0.703125 -1.375q0.71875 -0.515625 1.953125 -0.515625q1.15625 0 2.25 0.46875l-0.375 0.875q-1.078125 -0.4375 -1.953125 -0.4375q-0.765625 0 -1.15625 0.25q-0.390625 0.234375 -0.390625 0.65625q0 0.28125 0.140625 0.484375q0.15625 0.203125 0.46875 0.390625q0.328125 0.171875 1.25 0.53125q1.28125 0.453125 1.71875 0.921875q0.453125 0.46875 0.453125 1.171875zm2.82695 -1.703125q0.28125 -0.390625 0.84375 -1.03125l2.3125 -2.4375l1.28125 0l-2.890625 3.03125l3.093752 4.09375l-1.3125019 0l-2.515625 -3.375l-0.8125 0.703125l0 2.671875l-1.078125 0l0 -10.125l1.078125 0l0 5.375q0 0.34375 -0.0625 1.09375l0.0625 0zm12.989412 -5.859375l-3.546875 9.515625l-1.078125 0l3.546875 -9.515625l1.078125 0zm7.8404846 9.515625l-1.109375 0l0 -8.53125l-3.015625 0l0 -0.984375l7.140625 0l0 0.984375l-3.015625 0l0 8.53125zm8.670303 0l-0.21875 -1.015625l-0.046875 0q-0.53125 0.671875 -1.0625 0.90625q-0.53125 0.234375 -1.328125 0.234375q-1.0625 0 -1.671875 -0.546875q-0.59375 -0.546875 -0.59375 -1.546875q0 -2.15625 3.453125 -2.265625l1.21875 -0.046875l0 -0.4375q0 -0.84375 -0.359375 -1.234375q-0.359375 -0.40625 -1.15625 -0.40625q-0.890625 0 -2.015625 0.546875l-0.34375 -0.828125q0.53125 -0.28125 1.15625 -0.4375q0.640625 -0.171875 1.265625 -0.171875q1.28125 0 1.890625 0.5625q0.609375 0.5625 0.609375 1.8125l0 4.875l-0.796875 0zm-2.4375 -0.765625q1.0 0 1.578125 -0.546875q0.578125 -0.5625 0.578125 -1.546875l0 -0.640625l-1.078125 0.03125q-1.28125 0.046875 -1.859375 0.40625q-0.5625 0.359375 -0.5625 1.109375q0 0.578125 0.34375 0.890625q0.359375 0.296875 1.0 0.296875zm8.787476 0.890625q-0.703125 0 -1.28125 -0.25q-0.578125 -0.265625 -0.96875 -0.796875l-0.078125 0q0.078125 0.625 0.078125 1.1875l0 2.9374962l-1.078125 0l0 -10.328121l0.890625 0l0.140625 0.96875l0.046875 0q0.421875 -0.578125 0.96875 -0.84375q0.5625 -0.265625 1.28125 -0.265625q1.4218712 0 2.1874962 0.96875q0.765625 0.96875 0.765625 2.71875q0 1.765625 -0.78125 2.734375q-0.78125 0.96875 -2.1718712 0.96875zm-0.15625 -6.46875q-1.09375 0 -1.59375 0.609375q-0.484375 0.59375 -0.5 1.921875l0 0.234375q0 1.515625 0.5 2.15625q0.515625 0.640625 1.609375 0.640625q0.9374962 0 1.4531212 -0.734375q0.53125 -0.75 0.53125 -2.0625q0 -1.34375 -0.53125 -2.046875q-0.515625 -0.71875 -1.4687462 -0.71875zm8.011135 6.46875q-1.578125 0 -2.5 -0.953125q-0.90625 -0.96875 -0.90625 -2.671875q0 -1.734375 0.84375 -2.75q0.859375 -1.015625 2.28125 -1.015625q1.34375 0 2.125 0.890625q0.78125 0.875 0.78125 2.328125l0 0.671875l-4.90625 0q0.03125 1.265625 0.625 1.921875q0.609375 0.640625 1.703125 0.640625q1.140625 0 2.265625 -0.484375l0 0.96875q-0.5625 0.25 -1.078125 0.34375q-0.515625 0.109375 -1.234375 0.109375zm-0.296875 -6.484375q-0.859375 0 -1.375 0.5625q-0.5 0.5625 -0.59375 1.546875l3.734375 0q0 -1.015625 -0.453125 -1.5625q-0.453125 -0.546875 -1.3125 -0.546875z" fill-rule="nonzero"/><path fill="#000000" d="m13.071277 77.42204l-1.171875 -3.03125l-3.8125 0l-1.1718755 3.03125l-1.125 0l3.7656255 -9.546875l0.921875 0l3.75 9.546875l-1.15625 0zm-1.515625 -4.015625l-1.109375 -2.953125q-0.21875 -0.5625 -0.453125 -1.375q-0.140625 0.625 -0.40625 1.375l-1.109375 2.953125l3.078125 0zm7.074828 -3.25q0.46875 0 0.84375 0.078125l-0.140625 1.0q-0.453125 -0.09375 -0.78125 -0.09375q-0.875 0 -1.5 0.703125q-0.609375 0.703125 -0.609375 1.75l0 3.828125l-1.078124 0l0 -7.125l0.89062405 0l0.125 1.3125l0.0625 0q0.390625 -0.703125 0.953125 -1.078125q0.5625 -0.375 1.234375 -0.375zm5.0343323 7.390625q-1.546875 0 -2.40625 -0.953125q-0.84375 -0.953125 -0.84375 -2.6875q0 -1.796875 0.859375 -2.765625q0.859375 -0.984375 2.453125 -0.984375q0.515625 0 1.03125 0.109375q0.515625 0.109375 0.8125 0.265625l-0.328125 0.921875q-0.359375 -0.15625 -0.796875 -0.25q-0.421875 -0.09375 -0.734375 -0.09375q-2.171875 0 -2.171875 2.78125q0 1.3125 0.515625 2.015625q0.53125 0.703125 1.578125 0.703125q0.890625 0 1.828125 -0.390625l0 0.96875q-0.71875 0.359375 -1.796875 0.359375zm8.376436 -0.125l0 -4.609375q0 -0.875 -0.4062519 -1.296875q-0.390625 -0.4375 -1.234375 -0.4375q-1.125 0 -1.65625 0.609375q-0.515625 0.609375 -0.515625 2.0l0 3.734375l-1.078125 0l0 -10.125l1.078125 0l0 3.0625q0 0.546875 -0.046875 0.921875l0.0625 0q0.328125 -0.515625 0.90625 -0.8125q0.59375 -0.296875 1.34375 -0.296875q1.3125 0 1.9687519 0.625q0.65625 0.625 0.65625 1.96875l0 4.65625l-1.078125 0zm4.3679047 0l-1.078125 0l0 -7.125l1.078125 0l0 7.125zm-1.171875 -9.0625q0 -0.375 0.1875 -0.546875q0.1875 -0.171875 0.453125 -0.171875q0.265625 0 0.453125 0.171875q0.1875 0.171875 0.1875 0.546875q0 0.359375 -0.1875 0.546875q-0.1875 0.171875 -0.453125 0.171875q-0.265625 0 -0.453125 -0.171875q-0.1875 -0.1875 -0.1875 -0.546875zm5.0273285 9.0625l-2.703125 -7.125l1.15625 0l1.53125 4.21875q0.53125 1.484375 0.625 1.9375l0.046875 0q0.0625 -0.359375 0.4375 -1.4375q0.390625 -1.078125 1.71875 -4.71875l1.15625 0l-2.703125 7.125l-1.265625 0zm8.130203 0.125q-1.578125 0 -2.5 -0.953125q-0.90625 -0.96875 -0.90625 -2.671875q0 -1.734375 0.84375 -2.75q0.859375 -1.015625 2.28125 -1.015625q1.34375 0 2.125 0.890625q0.78125 0.875 0.78125 2.328125l0 0.671875l-4.90625 0q0.03125 1.265625 0.625 1.921875q0.609375 0.640625 1.703125 0.640625q1.140625 0 2.265625 -0.484375l0 0.96875q-0.5625 0.25 -1.078125 0.34375q-0.515625 0.109375 -1.234375 0.109375zm-0.296875 -6.484375q-0.859375 0 -1.375 0.5625q-0.5 0.5625 -0.59375 1.546875l3.734375 0q0 -1.015625 -0.453125 -1.5625q-0.453125 -0.546875 -1.3125 -0.546875z" fill-rule="nonzero"/><path fill="#000000" fill-opacity="0.0" d="m-3.2099738 111.62205l136.44095 0l0 26.74015l-136.44095 0z" fill-rule="evenodd"/><path fill="#000000" d="m15.352527 128.65642q0 2.28125 -1.15625 3.59375q-1.15625 1.296875 -3.203125 1.296875q-2.109375 0 -3.2500005 -1.28125q-1.140625 -1.28125 -1.140625 -3.625q0 -2.328125 1.140625 -3.609375q1.1562505 -1.28125 3.2656255 -1.28125q2.046875 0 3.1875 1.3125q1.15625 1.296875 1.15625 3.59375zm-7.5781255 0q0 1.921875 0.8125005 2.921875q0.828125 1.0 2.40625 1.0q1.578125 0 2.375 -0.984375q0.8125 -1.0 0.8125 -2.9375q0 -1.921875 -0.8125 -2.90625q-0.796875 -1.0 -2.359375 -1.0q-1.59375 0 -2.421875 1.0q-0.8125005 1.0 -0.8125005 2.90625zm12.864441 4.890625q-0.703125 0 -1.28125 -0.25q-0.578125 -0.265625 -0.96875 -0.796875l-0.078125 0q0.078125 0.625 0.078125 1.1875l0 2.9375l-1.078125 0l0 -10.328125l0.890625 0l0.140625 0.96875l0.046875 0q0.421875 -0.578125 0.96875 -0.84375q0.5625 -0.265625 1.28125 -0.265625q1.421875 0 2.1875 0.96875q0.765625 0.96875 0.765625 2.71875q0 1.765625 -0.78125 2.734375q-0.78125 0.96875 -2.171875 0.96875zm-0.15625 -6.46875q-1.09375 0 -1.59375 0.609375q-0.484375 0.59375 -0.5 1.921875l0 0.234375q0 1.515625 0.5 2.15625q0.515625 0.640625 1.609375 0.640625q0.9375 0 1.453125 -0.734375q0.53125 -0.75 0.53125 -2.0625q0 -1.34375 -0.53125 -2.046875q-0.515625 -0.71875 -1.46875 -0.71875zm8.011139 6.46875q-1.578125 0 -2.5 -0.953125q-0.90625 -0.96875 -0.90625 -2.671875q0 -1.734375 0.84375 -2.75q0.859375 -1.015625 2.28125 -1.015625q1.34375 0 2.125 0.890625q0.78125 0.875 0.78125 2.328125l0 0.671875l-4.90625 0q0.03125 1.265625 0.625 1.921875q0.609375 0.640625 1.703125 0.640625q1.140625 0 2.265625 -0.484375l0 0.96875q-0.5625 0.25 -1.078125 0.34375q-0.515625 0.109375 -1.234375 0.109375zm-0.296875 -6.484375q-0.859375 0 -1.375 0.5625q-0.5 0.5625 -0.59375 1.546875l3.734375 0q0 -1.015625 -0.453125 -1.5625q-0.453125 -0.546875 -1.3125 -0.546875zm9.649431 6.359375l0 -4.609375q0 -0.875 -0.40625 -1.296875q-0.390625 -0.4375 -1.234375 -0.4375q-1.125 0 -1.65625 0.609375q-0.515625 0.59375 -0.515625 2.0l0 3.734375l-1.078125 0l0 -7.125l0.890625 0l0.171875 0.96875l0.046875 0q0.328125 -0.53125 0.921875 -0.8125q0.609375 -0.296875 1.34375 -0.296875q1.296875 0 1.9375 0.625q0.65625 0.625 0.65625 1.984375l0 4.65625l-1.078125 0zm14.517593 -4.84375q0 2.34375 -1.28125 3.59375q-1.28125 1.25 -3.6875 1.25l-2.625 0l0 -9.515625l2.90625 0q2.21875 0 3.453125 1.234375q1.234375 1.234375 1.234375 3.4375zm-1.171875 0.03125q0 -1.859375 -0.9375 -2.796875q-0.9375 -0.953125 -2.78125 -0.953125l-1.59375 0l0 7.609375l1.34375 0q1.96875 0 2.96875 -0.96875q1.0 -0.984375 1.0 -2.890625zm7.513138 4.8125l-0.21875 -1.015625l-0.046875 0q-0.53125 0.671875 -1.0625 0.90625q-0.53125 0.234375 -1.328125 0.234375q-1.0625 0 -1.671875 -0.546875q-0.59375 -0.546875 -0.59375 -1.546875q0 -2.15625 3.453125 -2.265625l1.21875 -0.046875l0 -0.4375q0 -0.84375 -0.359375 -1.234375q-0.359375 -0.40625 -1.15625 -0.40625q-0.890625 0 -2.015625 0.546875l-0.34375 -0.828125q0.53125 -0.28125 1.15625 -0.4375q0.640625 -0.171875 1.265625 -0.171875q1.28125 0 1.890625 0.5625q0.609375 0.5625 0.609375 1.8125l0 4.875l-0.796875 0zm-2.4375 -0.765625q1.0 0 1.578125 -0.546875q0.578125 -0.5625 0.578125 -1.546875l0 -0.640625l-1.078125 0.03125q-1.28125 0.046875 -1.859375 0.40625q-0.5625 0.359375 -0.5625 1.109375q0 0.578125 0.34375 0.890625q0.359375 0.296875 1.0 0.296875zm7.771847 0q0.28125 0 0.546875 -0.03125q0.265625 -0.046875 0.421875 -0.09375l0 0.828125q-0.171875 0.078125 -0.515625 0.125q-0.34375 0.0625 -0.6093712 0.0625q-2.078125 0 -2.078125 -2.171875l0 -4.25l-1.015625 0l0 -0.515625l1.015625 -0.453125l0.453125 -1.515625l0.625 0l0 1.65625l2.0781212 0l0 0.828125l-2.0781212 0l0 4.203125q0 0.640625 0.3125 0.984375q0.3125 0.34375 0.8437462 0.34375zm6.783325 0.765625l-0.21875 -1.015625l-0.046875 0q-0.53125 0.671875 -1.0625 0.90625q-0.53125 0.234375 -1.328125 0.234375q-1.0625 0 -1.671875 -0.546875q-0.59375 -0.546875 -0.59375 -1.546875q0 -2.15625 3.453125 -2.265625l1.21875 -0.046875l0 -0.4375q0 -0.84375 -0.359375 -1.234375q-0.359375 -0.40625 -1.15625 -0.40625q-0.890625 0 -2.015625 0.546875l-0.34375 -0.828125q0.53125 -0.28125 1.15625 -0.4375q0.640625 -0.171875 1.265625 -0.171875q1.28125 0 1.890625 0.5625q0.609375 0.5625 0.609375 1.8125l0 4.875l-0.796875 0zm-2.4375 -0.765625q1.0 0 1.578125 -0.546875q0.578125 -0.5625 0.578125 -1.546875l0 -0.640625l-1.078125 0.03125q-1.28125 0.046875 -1.859375 0.40625q-0.5625 0.359375 -0.5625 1.109375q0 0.578125 0.34375 0.890625q0.359375 0.296875 1.0 0.296875zm15.062164 0.765625l-1.171875 -3.03125l-3.8125 0l-1.171875 3.03125l-1.125 0l3.765625 -9.546875l0.921875 0l3.75 9.546875l-1.15625 0zm-1.515625 -4.015625l-1.109375 -2.953125q-0.21875 -0.5625 -0.453125 -1.375q-0.140625 0.625 -0.40625 1.375l-1.109375 2.953125l3.078125 0zm10.012329 -2.71875q0 1.4375 -0.984375 2.21875q-0.984375 0.78125 -2.828125 0.78125l-1.109375 0l0 3.734375l-1.109375 0l0 -9.515625l2.46875 0q3.5625 0 3.5625 2.78125zm-4.921875 2.046875l0.984375 0q1.46875 0 2.125 -0.46875q0.671875 -0.484375 0.671875 -1.53125q0 -0.953125 -0.625 -1.40625q-0.625 -0.46875 -1.921875 -0.46875l-1.234375 0l0 3.875zm6.9148407 4.6875l0 -9.515625l1.109375 0l0 9.515625l-1.109375 0z" fill-rule="nonzero"/><path fill="#000000" fill-opacity="0.0" d="m387.01837 106.67183l0 -13.354294l59.713837 0l0 -36.000034l-25.005188 0" fill-rule="evenodd"/><path stroke="#000000" stroke-width="1.0" stroke-linejoin="round" stroke-linecap="butt" d="m387.01837 106.67184l0 -13.354301l59.713837 0l0 -36.00004l-21.578094 0" fill-rule="evenodd"/><path fill="#000000" stroke="#000000" stroke-width="1.0" stroke-linecap="butt" d="m425.1541 57.317497l1.1246033 -1.1245842l-3.0897827 1.1245842l3.0897827 1.1245842z" fill-rule="evenodd"/><path fill="#999999" d="m179.28511 40.004803l20.125977 0l0 22.110237l-20.125977 0z" fill-rule="evenodd"/><path stroke="#000000" stroke-width="1.0" stroke-linejoin="round" stroke-linecap="butt" d="m179.28511 40.004803l20.125977 0l0 22.110237l-20.125977 0z" fill-rule="evenodd"/><path fill="#999999" d="m165.45087 51.130997l0 0c0 -0.63490677 0.5993042 -1.1496048 1.3385925 -1.1496048l0 0c0.7392731 0 1.3385773 0.514698 1.3385773 1.1496048l0 0c0 0.6349106 -0.5993042 1.1496086 -1.3385773 1.1496086l0 0c-0.73928833 0 -1.3385925 -0.514698 -1.3385925 -1.1496086z" fill-rule="evenodd"/><path stroke="#000000" stroke-width="1.0" stroke-linejoin="round" stroke-linecap="butt" d="m165.45087 51.130997l0 0c0 -0.63490677 0.5993042 -1.1496048 1.3385925 -1.1496048l0 0c0.7392731 0 1.3385773 0.514698 1.3385773 1.1496048l0 0c0 0.6349106 -0.5993042 1.1496086 -1.3385773 1.1496086l0 0c-0.73928833 0 -1.3385925 -0.514698 -1.3385925 -1.1496086z" fill-rule="evenodd"/><path fill="#999999" d="m169.24597 51.130997l0 0c0 -0.63490677 0.5993042 -1.1496048 1.3385773 -1.1496048l0 0c0.7392731 0 1.3385773 0.514698 1.3385773 1.1496048l0 0c0 0.6349106 -0.5993042 1.1496086 -1.3385773 1.1496086l0 0c-0.7392731 0 -1.3385773 -0.514698 -1.3385773 -1.1496086z" fill-rule="evenodd"/><path stroke="#000000" stroke-width="1.0" stroke-linejoin="round" stroke-linecap="butt" d="m169.24597 51.130997l0 0c0 -0.63490677 0.5993042 -1.1496048 1.3385773 -1.1496048l0 0c0.7392731 0 1.3385773 0.514698 1.3385773 1.1496048l0 0c0 0.6349106 -0.5993042 1.1496086 -1.3385773 1.1496086l0 0c-0.7392731 0 -1.3385773 -0.514698 -1.3385773 -1.1496086z" fill-rule="evenodd"/><path fill="#999999" d="m173.04106 51.130997l0 0c0 -0.63490677 0.5993042 -1.1496048 1.3385773 -1.1496048l0 0c0.73928833 0 1.3385925 0.514698 1.3385925 1.1496048l0 0c0 0.6349106 -0.5993042 1.1496086 -1.3385925 1.1496086l0 0c-0.7392731 0 -1.3385773 -0.514698 -1.3385773 -1.1496086z" fill-rule="evenodd"/><path stroke="#000000" stroke-width="1.0" stroke-linejoin="round" stroke-linecap="butt" d="m173.04106 51.130997l0 0c0 -0.63490677 0.5993042 -1.1496048 1.3385773 -1.1496048l0 0c0.73928833 0 1.3385925 0.514698 1.3385925 1.1496048l0 0c0 0.6349106 -0.5993042 1.1496086 -1.3385925 1.1496086l0 0c-0.7392731 0 -1.3385773 -0.514698 -1.3385773 -1.1496086z" fill-rule="evenodd"/></g></svg>